<svg xmlns="http://www.w3.org/2000/svg" version="1.1" xmlns:xlink="http://www.w3.org/1999/xlink" xmlns:svgjs="http://svgjs.dev/svgjs" viewBox="0 0 3.01376953125 3.5302983262363727"><g transform="matrix(0.8571428571428572,0,0,0.8571428571428572,0.43053850446428554,2.111134997130203)"><g clip-path="url(#SvgjsClipPath17565)"><g clip-path="url(#SvgjsClipPath1756394d2799f-f10e-44ef-bbdf-3feaba807a62)"><path d=" M 0.5596906036829399 -1.696500570656492 C 0.5117139216326148 -1.6717693482546327 0.46792256741554783 -1.6386474309969048 0.4275750910257106 -1.6028946544513765 C 0.41818529944357175 -1.5945726653875723 0.40907891925369855 -1.585944363000814 0.3997606962049601 -1.5775479426622734 C 0.39651148478857967 -1.574622221016863 0.3902334930386923 -1.5709149709867198 0.38905118086691687 -1.566497761105244 C 0.388587416770482 -1.5684386997310642 0.3875253397348193 -1.5661399184382419 0.38650047833652484 -1.5654499977762615 C 0.38425036364641474 -1.563932744868172 0.38230083679658655 -1.5614994147325567 0.3803971138081345 -1.5595613388480725 C 0.37469453306678674 -1.553758562159964 0.36914654035758393 -1.5477954719570386 0.3634496850989082 -1.54197838156225 C 0.34600986487988666 -1.5241721304522184 0.3310176885031606 -1.5042531762362055 0.3148403372133231 -1.4853562206771507 C 0.29766388919721526 -1.4652855411703287 0.2837395153388239 -1.4425754141516982 0.27037623878229206 -1.4198796008397478 C 0.2567180998681503 -1.3966828077939941 0.2433662742769625 -1.3731109956332221 0.23292299388316895 -1.3482366361645624 C 0.2264904141011366 -1.332915244534194 0.2204443043994666 -1.3171701671860951 0.21480470396751125 -1.301539599491437 C 0.21259180491476934 -1.2954104702910225 0.210782552390406 -1.2890322825943745 0.2081974969639818 -1.283049153202097 C 0.20264950425477893 -1.2621311022598136 0.19573312118695954 -1.2417426584646938 0.1914275582175885 -1.2204753530794163 C 0.17435130614824132 -1.1361447188029992 0.16984248854401301 -1.049000009793276 0.18300537320702367 -0.9637275336173089 C 0.1902824616831813 -0.9165753210717571 0.20646840119702695 -0.8718564386618204 0.22022959879926532 -0.826416145435207 C 0.22236520383593467 -0.8272434776813165 0.22439775018450744 -0.8301062190173343 0.2259493559886292 -0.8317437070615366 C 0.23024060525132015 -0.836272563855117 0.23456334466870724 -0.8407756559766733 0.2388918095687664 -0.8452730226155574 C 0.2539870446335891 -0.860952256912928 0.2694773380027824 -0.8762564720952799 0.2847472002891022 -0.8917668046538252 C 0.28963103700834886 -0.8967279353891444 0.29441181503949887 -0.9018064385192404 0.29939012222283407 -0.9066673733077988 C 0.3008672967522194 -0.9081044694584797 0.3047692131932119 -0.9104461918713425 0.3052530164789989 -0.9123756795318185 C 0.3075145821344531 -0.9132860312766722 0.3096730891018107 -0.916561007365077 0.31141077309277354 -0.9183072795800479 C 0.3162144530546117 -0.92313672421391 0.32125574054733935 -0.9277113848688667 0.3260909106638737 -0.932503613865361 C 0.3427291633088101 -0.9489930039608244 0.3591383966468651 -0.9657457662592015 0.3754417085554874 -0.9825672343496432 C 0.3806919761657444 -0.987980678216053 0.38581628315721656 -0.9935258081839199 0.3911209428528578 -0.9988819972236095 C 0.392586666416899 -1.0003620344943307 0.3965028965645716 -1.0029385016967471 0.39678058247416537 -1.0049538715973036 C 0.3992339517991328 -1.0053975965043864 0.40213963425519095 -1.0099150023326229 0.40386873002214585 -1.0117242548569862 C 0.40931080130191605 -1.0174067964089817 0.41495898995787944 -1.0229003970328003 0.420461178805706 -1.0285256837580756 C 0.4381729594516492 -1.0466267972257173 0.4557330148067833 -1.064879635984168 0.4736365991222397 -1.0827918085236323 C 0.47872941595901575 -1.0878874881017442 0.4838021936064395 -1.0930003441278722 0.48893795156325576 -1.098050219844608 C 0.49091038034377216 -1.099991158470428 0.49458327747788317 -1.1020151165949927 0.4957312367536264 -1.1044999760746563 C 0.5094952970972008 -1.1172992925879928 0.5223203782825614 -1.1312895094971127 0.5357036940284453 -1.1445039235041716 C 0.575641798407232 -1.1839467736318272 0.61485276648667 -1.2241224855415032 0.654664910246672 -1.2636855708052717 C 0.6692935184737236 -1.2782254340509067 0.6833123627962037 -1.2933578847530978 0.6979610102126076 -1.307880571550717 C 0.7018572011709281 -1.311742409613005 0.7056990000438643 -1.3156643652433497 0.7096352693808889 -1.3194832621855976 C 0.7109979342568334 -1.320802985941502 0.7141326360197731 -1.3226923952232739 0.7146135765642241 -1.324484471299621 C 0.6791327604456175 -1.3568792522580004 0.6430908470251512 -1.3887501515518883 0.6081940301390922 -1.4217747356041917 C 0.5921741296227356 -1.4369386764610788 0.5733487425970816 -1.4494059149794372 0.5612336212630535 -1.468211262815739 C 0.5425714104935524 -1.497173616912233 0.5452767010560893 -1.535585880158922 0.5670965155192182 -1.5619173749676152 C 0.5810495167909699 -1.578753156764737 0.6014494115514339 -1.5885723595472785 0.622974363656953 -1.5910743954749582 C 0.6345427013958017 -1.5924170211615507 0.6465919796791012 -1.5915410223127293 0.6582261604686783 -1.5915868261741055 C 0.683037539627946 -1.5916841593795301 0.7078489187872137 -1.5915639242434172 0.7326602979464814 -1.5915553360194092 C 0.8309496589773223 -1.591520983123377 0.9292361572668271 -1.5915352968300571 1.027522655556332 -1.591512394899369 C 1.0580595173876355 -1.591506669416697 1.0885935164776033 -1.5915295713473852 1.1191303783089068 -1.591489492968681 C 1.1289381301261046 -1.5914751792620008 1.138748744684638 -1.5914522773313127 1.1485593592431715 -1.5915295713473852 C 1.1523439032893874 -1.5915610615020812 1.157239190973978 -1.590553376551803 1.160897774401409 -1.591503806675361 C 1.1633425555023684 -1.5921364725106208 1.1659963167208571 -1.5956204287165547 1.1678656868132768 -1.597237877571405 C 1.1745272859021907 -1.602997713139473 1.1808339050654382 -1.6091726462012639 1.1870517792472692 -1.6154048340897749 C 1.2076348894532385 -1.6360394736397925 1.228435568000745 -1.6564479566242647 1.2489070312946093 -1.6771541647076826 C 1.2796614614674506 -1.7082578493235179 1.3112289101797205 -1.7385427899172519 1.342009105024586 -1.769623572602399 C 1.351295837918628 -1.7790019132191937 1.3610950015118175 -1.7880853914783787 1.3700324799628658 -1.7977786336421355 C 1.384618147069877 -1.813598142264971 1.4000826757670461 -1.8286275342790652 1.4157561845817446 -1.8433592011942137 C 1.4396457610308147 -1.8658088187512667 1.4647548652890283 -1.8871476926699444 1.4951772174668911 -1.900293400884939 C 1.5198569105247022 -1.9109542496202698 1.5464374638296288 -1.916393458158704 1.573218409028077 -1.917501339055743 C 1.659610217066427 -1.9210711775017575 1.7406286596170717 -1.8607331783625067 1.766476351139978 -1.7793254029901637 C 1.7799655883152945 -1.736836596080985 1.77855998231931 -1.6919974785349357 1.764718627959663 -1.6498579260687511 C 1.7454838689229581 -1.5913062775231757 1.6996800075466705 -1.5496791557561385 1.656882024573202 -1.5079632890076846 C 1.6003257067388308 -1.4528354790999867 1.5435346441149065 -1.3979510022058501 1.4875537372890753 -1.3422334675829326 C 1.4736751672920598 -1.3284178778953097 1.4595475387988115 -1.3148570721865926 1.4455487336656836 -1.3011645803764187 C 1.4388699581287536 -1.2946346673889617 1.429855185661633 -1.287807029302559 1.4247623688248572 -1.2799831572312217 C 1.4241010755762369 -1.2682974470975963 1.4249198195983381 -1.2563197373476973 1.424931270563682 -1.2446053998007116 C 1.4249513097530344 -1.219794020641444 1.4249284078223463 -1.1949855042235122 1.4249284078223463 -1.1701741250642446 C 1.4249198195983381 -1.0938334018566533 1.4249713489423865 -1.0174955413903983 1.4249455842703624 -0.9411548181828073 C 1.4249369960463543 -0.9179351232063655 1.4249398587876902 -0.8947154282299237 1.4249627607183784 -0.8714957332534821 C 1.4249742116837223 -0.8579521039927809 1.4257242499137592 -0.8441222005984783 1.4245476632246559 -0.8306186497164816 C 1.420605668404959 -0.7854188267620938 1.3827831298734898 -0.750894166249717 1.3376319735218143 -0.7499695007981835 C 1.326747830962274 -0.749746206973974 1.3166108638914344 -0.7513035382607676 1.3065740927673555 -0.7557350618489234 C 1.2807693423644895 -0.767128772366275 1.2621643864217087 -0.791333250362307 1.24294680383302 -0.811100479287511 C 1.2094040635988974 -0.8455993751278634 1.1758985390021433 -0.8802213688456648 1.1420867010824352 -0.9144397160350877 C 1.0941672738588302 -0.8678715027220834 1.047928275799468 -0.8196915660369009 1.0004182205869139 -0.7726939415234939 C 0.989127568757659 -0.7615263875716878 0.9779628775471889 -0.750232873001097 0.9666407355632379 -0.7391053974279951 C 0.964092895774182 -0.7366004987589794 0.9615278795371098 -0.7341099137966438 0.9590086671614141 -0.731576387714268 C 0.9587138048038042 -0.731281525356658 0.9567728661779841 -0.7295209394350071 0.9567642779539759 -0.7293634886615259 C 0.9567442387646238 -0.728891136341083 0.9574284339439321 -0.7286936071888979 0.9577605119389101 -0.7283615291939198 C 0.9556449460915929 -0.7297127431045201 0.9543681634557288 -0.7267469430804054 0.9528394595822951 -0.7249920826414267 C 0.9485596612849484 -0.7200767557674836 0.9435584521709252 -0.7155822518699355 0.9389637523266162 -0.7109474736469223 C 0.922666165900666 -0.6945153383781792 0.9062254424079147 -0.678226340176237 0.8899765225846766 -0.6617455383047814 C 0.8860889198503642 -0.6578035434850849 0.8821641014786836 -0.6539016270440923 0.8783137143817397 -0.6499281420696994 C 0.8768222261456742 -0.6483879872309217 0.874738150453053 -0.6473287729365951 0.8755425807684742 -0.6452074816066058 C 0.8734985834545573 -0.6465844601892303 0.8722160753360211 -0.643801875610621 0.8706387048598754 -0.642198740462451 C 0.8664705534746332 -0.6379618832851444 0.8622565982280147 -0.633770829969214 0.8581027605494527 -0.6295167963438912 C 0.8401905880099884 -0.611169487121352 0.8222497880571636 -0.5927906877441167 0.8040570668667695 -0.5747210644311713 C 0.7992304849742433 -0.5699259726933412 0.794406765823053 -0.5651308809555113 0.7894656742770859 -0.5604531616124577 C 0.7881574014865257 -0.559213594613962 0.7842526223041972 -0.5565855980674976 0.7851887387210751 -0.555036855004712 C 0.7831504668898303 -0.5556781090639797 0.7811551361786258 -0.5527151717812013 0.7796750989079045 -0.551240859993152 C 0.7746910662418971 -0.5462768665164968 0.7698358569360106 -0.5411840496797209 0.7648575497526755 -0.5362114679790575 C 0.7482822774171314 -0.5196590975742019 0.7322394749700868 -0.5025857082461904 0.7157472221332872 -0.4859503183425904 C 0.7114044435265479 -0.481570324098483 0.7070215865411045 -0.4772361337157518 0.7026101021423008 -0.4729277080050447 C 0.7011615550262758 -0.4715106510437157 0.6983560685169782 -0.4699246923435618 0.6980697943833764 -0.46794367533903714 C 0.6953902684928636 -0.46797230275239743 0.6914024698117905 -0.4623298395791062 0.6894844331166584 -0.46046333222802227 C 0.6825795010141832 -0.4537473410537243 0.6756717061703718 -0.447037075362098 0.6687639113265604 -0.440326809670472 C 0.666948933319525 -0.43856336100748505 0.6620479201522623 -0.43517387526563955 0.6616843520025879 -0.432677564820632 C 0.7026272785903168 -0.4179086822681153 0.7458546727641882 -0.4085074397206325 0.7890648904900432 -0.4028563883233327 C 0.803662008562399 -0.400946939852209 0.8184194401495716 -0.3996014514242805 0.8330623620833034 -0.3981357278602391 C 0.8384099628989851 -0.3975975324890677 0.8441068181576609 -0.39825310025501603 0.8493599485092539 -0.3972339643393936 C 0.8521740232425595 -0.3973771014061942 0.8551942153520584 -0.39639231838660427 0.8580254665333802 -0.39618333826907537 C 0.8626688329804013 -0.39583980930875295 0.8673780424781509 -0.39594859347952127 0.87202999714918 -0.39593141703150536 C 0.8960798871130671 -0.3958455347914249 0.9201927573863463 -0.39634365178389186 0.944182529782177 -0.398109963188215 C 0.97909079763358 -0.40068070490795904 1.013492360268508 -0.40897692929973917 1.0475961978044899 -0.41643150773873017 C 1.0657144877201477 -0.4203906790064429 1.0838156011877893 -0.4250140062641117 1.1013012252681869 -0.43124046866995114 C 1.106528590947756 -0.4331012505383629 1.1157809709457658 -0.4349505814414303 1.119430966149189 -0.4392990855308414 C 1.1231725690753642 -0.43996324152079747 1.1268998582948597 -0.4421017092988031 1.130469696740874 -0.4434157075720355 C 1.1388203132180386 -0.4464902917669187 1.1469218711989693 -0.45022044372775016 1.1550635075586047 -0.45379887039777267 C 1.1867511914069875 -0.467731832480172 1.216354799562749 -0.4850313783737288 1.2450509187149932 -0.5042661374104331 C 1.2543405143503716 -0.5104954625576081 1.2635785806417015 -0.5168793757369283 1.2726133922981742 -0.5234722690337779 C 1.2747232326628195 -0.5250152866138913 1.2806548327110487 -0.5277062634697482 1.2810613419807633 -0.530388652101597 C 1.2818915369682085 -0.5300365349172669 1.282773261299702 -0.5309783768168168 1.2834860838923703 -0.5314993957399721 C 1.2857047084277844 -0.5331225700774942 1.2877572939657094 -0.5349375480845295 1.2899129381917307 -0.5366380164381241 C 1.2987158677999862 -0.5435744386952959 1.3073756603414406 -0.5506539980192682 1.315900904040102 -0.5579224982714179 C 1.3524810128317395 -0.5890977514206537 1.383793677565104 -0.6244182540244432 1.4145939115993211 -0.6611357744002098 C 1.4130766586912318 -0.6592435023771019 1.4169012811161519 -0.6643907112992622 1.4176427311221804 -0.6654442001109169 C 1.4199701398283628 -0.6687621173193616 1.422492214945395 -0.6719340347196696 1.4248568392889458 -0.6752204617734181 C 1.4319593005436062 -0.6850969193826801 1.439388114310573 -0.6948159262184612 1.4459781448660864 -0.7050445010120532 C 1.4660889027516124 -0.7362684207640013 1.4829848021167906 -0.7700573567530216 1.4976849788772428 -0.8041039394622831 C 1.5256711381781545 -0.8689164033097296 1.5440957414167662 -0.9372128233631105 1.5523261227578178 -1.0073585743195588 C 1.5548911389948898 -1.029209878937384 1.5537431797191468 -1.0515593005476762 1.553774669873843 -1.073516526594934 C 1.5537947090631952 -1.0862270981268538 1.5529616513344136 -1.0994042964965445 1.5572357241490886 -1.1115852608813008 C 1.5683803761702064 -1.1433588269697643 1.605515856781032 -1.1588920614589977 1.634538328445582 -1.1397088317663413 C 1.6408878887288698 -1.135514915709075 1.6463814893526882 -1.1297951585197112 1.6505754054099544 -1.1234627746844394 C 1.6591435902286562 -1.1105289093283104 1.6581301797957058 -1.0971112406863943 1.6576750039232788 -1.082282240565821 C 1.657182612413484 -1.0663052811695046 1.6568018678157934 -1.0502882433944842 1.6566157896289522 -1.0343055585154959 C 1.6560117512070525 -0.9832084884089113 1.647334782217582 -0.9330704366498925 1.6345497794109258 -0.8836738348969024 C 1.623531088008593 -0.8410934202649711 1.6102536936921414 -0.7992802203110927 1.5921125018457956 -0.759144586780121 C 1.5667085352299719 -0.7029403861300803 1.5371478681942505 -0.6494815544212806 1.4993510943348052 -0.6005057756446852 C 1.4511196283055745 -0.5380064067967409 1.3930632340111302 -0.4837603212205366 1.3290322985484164 -0.43780759729477636 C 1.3159352569361342 -0.42840635474729316 1.3030844110787494 -0.41864154405013587 1.2894176839405997 -0.4100676337487621 C 1.276231897346901 -0.40180003677034226 1.2623246999365256 -0.3946861245503377 1.2487238158491043 -0.3871370756472581 C 1.2363453223121625 -0.38026363369947913 1.2241872598580943 -0.3731439959968026 1.2112619827259732 -0.3672954154473176 C 1.1466814009267436 -0.33806968914791025 1.078316275081299 -0.31783869612627136 1.0085798961359012 -0.30568922189621084 C 0.9653897175993981 -0.298165937665156 0.9220649902201021 -0.2929213955375711 0.8781677145736025 -0.29290135634821857 C 0.8346282815941053 -0.2928813171588669 0.792059317927518 -0.2978395851528499 0.7491382370766008 -0.30472161532463704 C 0.7268403448103569 -0.30829717925332334 0.7044107664426562 -0.31182407657929745 0.6825422853768148 -0.3175610102166775 C 0.6610030195646157 -0.3232091988726409 0.6396097535605534 -0.32962746494799355 0.6185256636207811 -0.33677573006403017 C 0.6104555957945463 -0.3395125107812633 0.6022853320215511 -0.3419258017275264 0.5941551466272601 -0.34446791603391036 C 0.5894946037322228 -0.3459221886326078 0.5845535121862558 -0.3481751660640535 0.5796553617603292 -0.34846716568032776 C 0.5565444509546561 -0.32687064504140784 0.5349422048330644 -0.3034906365501493 0.5127387830309091 -0.28096372497702404 C 0.5007753869876901 -0.2688257017123077 0.4891154415260888 -0.2544347010161452 0.4715038568269063 -0.2511024701010205 C 0.459331480666158 -0.24880082606686194 0.44607698828039477 -0.2499373343772613 0.4351642183074942 -0.2560865027670274 C 0.4136822073220155 -0.2681901731357119 0.4056150022371168 -0.29631088127941596 0.41202754282979703 -0.31907540038343085 C 0.4150047938192557 -0.3296417786546735 0.4223935292075181 -0.33769753277422776 0.42974504895841226 -0.345481326466861 C 0.43986197683989975 -0.35619084180490423 0.45046557074851024 -0.3664738086838806 0.4609746941930323 -0.37679685394156115 C 0.46526021797305117 -0.3810079464468439 0.46959727109711846 -0.385161784125406 0.4737854616717127 -0.3894702098361129 C 0.4761958898766398 -0.3919522065744405 0.47872941595901575 -0.395241496369525 0.4816121964843858 -0.39713376839263304 C 0.4851763094477281 -0.40326289759304745 0.49142281104291935 -0.40857328277136085 0.49624653019410964 -0.41373480540020124 C 0.5066010656064867 -0.4248193398532627 0.5170786988963124 -0.43574356079150744 0.5277395476316433 -0.4465360956282949 C 0.5590922907437121 -0.4782753088207261 0.590462210303797 -0.5100145220131571 0.6222214626855803 -0.5413472259358738 C 0.6400191255716039 -0.5589044185496721 0.6584036504315115 -0.5760407881870757 0.6759665685279816 -0.5937983726943952 C 0.7049117461764592 -0.6230584518898348 0.733072532698868 -0.6531859417100878 0.7621493964488025 -0.6823715896307911 C 0.8088149429672312 -0.7292146261120531 0.8563249981797856 -0.7752417813125498 0.9025582707564758 -0.8224426604608142 C 0.9299117642221274 -0.8503687021936694 0.957568708269397 -0.8778853719154742 0.9852542797300268 -0.9054764729120153 C 0.9939656016155295 -0.9141563046428216 1.0026998254317203 -0.9228218226669481 1.011282323957102 -0.9316276150165393 C 1.0141851436718243 -0.9346048660059981 1.019255058577912 -0.9377166658382496 1.021153056083692 -0.9413781120070166 C 1.021800035625632 -0.945265714741329 1.0212732912198048 -0.9496170815720762 1.0212818794438128 -0.9535619391331092 C 1.021296193150493 -0.961194007534933 1.021299055891829 -0.9688289386780928 1.021299055891829 -0.9764610070799167 C 1.021293330409157 -0.9971013721126064 1.0219947020364815 -1.0178762859880885 1.0211015267396437 -1.0384994745727623 C 1.0221721919993143 -1.0494694993723828 1.0212818794438128 -1.0608689353724066 1.0212761539611408 -1.0718876267747395 C 1.0212704284784686 -1.0954164978154715 1.0209154485528025 -1.1189797217522353 1.0212561147717885 -1.142502867310295 C 1.0150640052619817 -1.138346166890397 1.0104120505909526 -1.13155001895869 1.005084488964623 -1.1263684571404977 C 0.9922250548832305 -1.113858277502099 0.979420012887222 -1.1012994312609883 0.9667094413553023 -1.0886403890731169 C 0.9297772153793344 -1.0518570256466218 0.8926732249232056 -1.0152425639589522 0.8558898614967108 -0.9783103379829844 C 0.8228108853590231 -0.945096813002504 0.7893511646236452 -0.9124329343585389 0.7570222267159943 -0.8784922730787099 C 0.7459863588656449 -0.8669038961505091 0.7337767670675283 -0.8563461061032749 0.722571997478354 -0.8448922780178669 C 0.6786718590905186 -0.8000159448344495 0.6333031343973059 -0.7566683155244653 0.5886930361581377 -0.7125162558990603 C 0.5667415355935521 -0.6907880491586837 0.5453625832961698 -0.6684701177030876 0.5235942981770894 -0.6465586955172062 C 0.48381650731311965 -0.6065175324503229 0.44324573709907295 -0.5672636232508446 0.4033562993229986 -0.527336969837402 C 0.3930160776173018 -0.5169852971663609 0.3828791105464622 -0.5064475463084788 0.3726877513902382 -0.49594987382930134 C 0.3697706179688358 -0.49294399542648226 0.36258227447409475 -0.4881174135339559 0.3621900789110603 -0.4838376152366093 C 0.35974816055143694 -0.4849426333923119 0.3574493792586145 -0.48783400214169026 0.35543114661672176 -0.4896260782180377 C 0.3510711915619665 -0.4934965045043336 0.34660817781911446 -0.4972466956545172 0.3421279876282463 -0.5009739848740125 C 0.32863016222892166 -0.512198793652539 0.315953943593034 -0.5242910130558789 0.30369568519220513 -0.5368412710729817 C 0.2985599272353889 -0.5420944014245745 0.291560524668825 -0.5474906688429684 0.28767005919317656 -0.5537228567314796 C 0.2978242027120323 -0.5591477515632337 0.3047806641585559 -0.5695681300263391 0.3123755169230116 -0.5778128250740708 C 0.32417001122740563 -0.590612141587407 0.33662866152175586 -0.6028360470922038 0.3490758608507619 -0.6149969722876081 C 0.39944579465799807 -0.6642074958537572 0.4488395336696521 -0.7144285671115203 0.49861688002033255 -0.7642374036168968 C 0.557970096139993 -0.8236335608565977 0.6172546064675891 -0.8830841101816826 0.6765562932432013 -0.9425203458000878 C 0.6886599636118852 -0.9546526435821319 0.7003113208494783 -0.967245842719275 0.712523775388931 -0.9792607681065424 C 0.7440940868425371 -1.0103272370850096 0.7758476137416485 -1.041187588687283 0.8069713375468358 -1.072712096279513 C 0.8378975321998378 -1.1040362119782214 0.8685460409432462 -1.1356294253625157 0.8994493336655602 -1.1669793057332485 C 0.9072789312195693 -1.1749234129406982 0.914893823173377 -1.183142343316406 0.9229438518102596 -1.1908602939583104 C 0.9307791748469408 -1.1983664017413496 0.9392986930629303 -1.2056749803722036 0.9463038211121664 -1.2139654792813115 C 0.9378988125496175 -1.2130293628644337 0.9291073339067063 -1.2136305385449973 0.9206450705174372 -1.2136334012863335 C 0.9060135995490495 -1.2136391267690054 0.8913821285806616 -1.2136276758036613 0.8767506576122737 -1.2136362640276692 C 0.8707961556333563 -1.2136391267690054 0.8648387909131029 -1.2136334012863335 0.8588842889341856 -1.2136305385449973 C 0.8558297439286543 -1.2136305385449973 0.8526377873389942 -1.2142431651909051 0.8500813593259303 -1.212316540271765 C 0.8504621039236206 -1.2127459514721677 0.8514926908045871 -1.2131009313978338 0.8512207303776655 -1.2136076366143094 C 0.8509344562440637 -1.2141429692441443 0.8500040653098578 -1.213590460166293 0.849397164146622 -1.213596185648965 C 0.8469065791842865 -1.2136190875796533 0.8444159942219508 -1.213561832752933 0.8419254092596151 -1.213599048390301 C 0.8338152630546761 -1.2137164207850777 0.8256965286257292 -1.2136076366143094 0.8175863824207904 -1.2136305385449973 C 0.8075553367793834 -1.2136563032170216 0.797461310828584 -1.2133728918247557 0.787438853411185 -1.2137908520598144 C 0.7756586728134712 -1.2142803808282734 0.7634433555326825 -1.2156058300668497 0.7516774886416486 -1.2144349688604184 C 0.7465674953568566 -1.211512109956344 0.7419384426165155 -1.2049220794008306 0.737861898954026 -1.2006422811034838 C 0.728443479958527 -1.1907543725288776 0.7190737275657402 -1.1808263855755676 0.7095751518128326 -1.171010045534362 C 0.6801060924998636 -1.1405533404604666 0.6496551129086405 -1.1110785556648257 0.6199885244434863 -1.0808136542604436 C 0.5815104181460687 -1.0415597450609653 0.5422536462052544 -1.003093089728892 0.5036295400997 -0.9639880430788866 C 0.4453670284290624 -0.9050041205915722 0.3871474578784649 -0.8459629432775377 0.32856718191952927 -0.7872881968545136 C 0.2956571075206667 -0.7543265931116028 0.2628243271378766 -0.7212791071286111 0.22954209636533174 -0.6886925225007186 C 0.22188426329148364 -0.6811950029416878 0.21441250840447676 -0.6735314443851674 0.20694934174147794 -0.6658449838979592 C 0.20515440292379467 -0.6639956529948916 0.19940888106240662 -0.6593322473585184 0.20101201621057668 -0.6572023678045211 C 0.19971805712669655 -0.6573626813193381 0.19513194550639576 -0.6507211214197763 0.1936261435636503 -0.6492725743037513 C 0.1852268604837736 -0.6411796045468285 0.1769564007640177 -0.6329434977231048 0.16875464683632618 -0.6246501360726606 C 0.150235573133626 -0.6059249449937674 0.1315304212440846 -0.5872913616376263 0.11382722882214948 -0.5677875049153358 C 0.10152602930128027 -0.5542352874306267 0.08795090988588306 -0.5372277411533442 0.07116952017414574 -0.5291834379991336 C 0.06521788093656439 -0.5263292848871237 0.05892843822133291 -0.5248750122884265 0.05233268218314751 -0.5247662281176579 C 0.04395057555128691 -0.5246288165335289 0.03549690038602585 -0.5258569325666806 0.027859106501529902 -0.5295012022874317 C 0.004378902063510548 -0.5407116973592778 -0.005732300335304916 -0.5704326779098163 0.003245256494447431 -0.594267862273502 C 0.01027328647437154 -0.612921484818995 0.027962165189626555 -0.626456525855688 0.04171763730919289 -0.6400745863911255 C 0.06377219656187531 -0.6619115773022706 0.08504522742982483 -0.6845157828914683 0.10713986506121151 -0.7063184209065811 C 0.11531585431687884 -0.71438562599148 0.12342886326315373 -0.722527262351115 0.13141591159064386 -0.7307805456228549 C 0.13512316162078714 -0.7346080307891107 0.1401701745961868 -0.7389050055344739 0.14293844546811618 -0.7434424505520623 C 0.14192789777650186 -0.747997072017667 0.13912527400854027 -0.7526289874993439 0.13728166858814467 -0.7569202367620349 C 0.133826339795571 -0.7649588144335733 0.13070881448064742 -0.7731233527238965 0.1275483480456836 -0.7812821655315478 C 0.11818145839423282 -0.8054694670795637 0.11043774308030421 -0.8302636697908152 0.10322936039621097 -0.8551637939314995 C 0.0814582125357943 -0.9303994989833878 0.07135273561965087 -1.0079454362934424 0.07256940068745853 -1.0862185099028459 C 0.07404371247550778 -1.1809895618317205 0.09084800411793324 -1.2769028475536666 0.12671529031690237 -1.3649550455669073 C 0.1731661312351299 -1.4789808957218387 0.2460887412875156 -1.582778171083178 0.3375504642319536 -1.6652365725258398 C 0.37395022031942216 -1.6980550392019498 0.41382820713015234 -1.7270288442637876 0.4554496034145176 -1.7528135554773014 C 0.5220512805969756 -1.7940713836119924 0.5933106379331349 -1.8261484002820736 0.6692734792843716 -1.8458211587431892 C 0.7148683605431295 -1.8576271040129273 0.7610501037757714 -1.8669625035096817 0.8078988657397055 -1.8720410066397777 C 0.8556722931551732 -1.8772168429752982 0.9045850916223764 -1.8761919815770038 0.9523241661418119 -1.8714169290285259 C 0.9705999068309507 -1.8695876373148104 0.9886924320745843 -1.866842268373569 1.0068880160063145 -1.8643116050325292 C 1.0220118784844974 -1.8622074901505559 1.0383094649104476 -1.8601005125272467 1.0514981142454825 -1.8518128763594748 C 1.072112714606148 -1.8388561090726574 1.085656343866849 -1.814414023545736 1.0760575721671808 -1.7904471530805937 C 1.0743198881762177 -1.7861100999565265 1.0722014595875644 -1.7820106543633487 1.0694045613022747 -1.7782576004718291 C 1.0661095460245182 -1.7738289396250093 1.0619957867246603 -1.7696636509811032 1.0574612044484077 -1.7664917335807953 C 1.0502098806442746 -1.7614160931920353 1.041389774588003 -1.758802410352251 1.0327385702705567 -1.7574025298389382 C 1.0183704715050825 -1.7550779838740915 1.003478491075117 -1.7609351526475843 0.9895083133553494 -1.763577462900729 C 0.966680813941942 -1.76789733957678 0.9436185697389813 -1.769952787856041 0.9204790315199483 -1.7716160405722674 C 0.9018626246118234 -1.7729529407761877 0.8832404922210263 -1.7724147454050163 0.8646355362782457 -1.7720740791860303 C 0.8383584335549368 -1.7715988641242513 0.8120412524529236 -1.7703764735737717 0.7859473651751198 -1.7671186739333833 C 0.7653642549691506 -1.764547932213639 0.7447467918671492 -1.7601564870041875 0.724484308690814 -1.75577649276008 C 0.6865672996952562 -1.7475776015737245 0.648312487222048 -1.736003538352204 0.6125453969698396 -1.7209397934420774 C 0.6005361970652442 -1.7158813295013335 0.5886844479341298 -1.7104936503069477 0.576784032200303 -1.7051889906113065 C 0.5728048217432381 -1.7034140909829754 0.5687912583901409 -1.7016363286133083 0.5648922046904845 -1.6996896645048158 C 0.5633262851796826 -1.698908136120083 0.5595646430641551 -1.6961799436268579 0.5596906036829399 -1.696500570656492 Z M 0.7908426528597106 -1.4106129071350577 C 0.790942848806471 -1.4082797729462029 0.7952455490345061 -1.40527675728472 0.7968687233720283 -1.4036822103605582 C 0.8028003234202575 -1.3978593944830977 0.8090267858260967 -1.3923228527392388 0.8150814837517747 -1.3866317229632352 C 0.8385044333630737 -1.364625830313265 0.863584910207927 -1.3434587208747482 0.8849924899186694 -1.3194374583242214 C 0.888427779521891 -1.3178343231760514 0.8940387525404863 -1.3192485173960442 0.8977402770879576 -1.319380203497501 C 0.9075795190598511 -1.3197351834231672 0.9174760158584652 -1.3194832621855976 0.927320983313031 -1.3194918504096056 C 0.9530856553371927 -1.319511889598958 0.9788531901026905 -1.319537654270982 1.0046178621268522 -1.319534791529646 C 1.0125705575583102 -1.319534791529646 1.020523252989768 -1.3195319287883098 1.028475948421226 -1.3195576934603341 C 1.0328874328200295 -1.319572007167014 1.0376624853685075 -1.3200386340047852 1.0420167149405908 -1.3193200859294447 C 1.0448107504845445 -1.3181406364990051 1.0473213746362322 -1.3147769154291842 1.04947988160359 -1.312681388771219 C 1.054899050952672 -1.30742539567829 1.0600892009948724 -1.3019346577958075 1.0654740174479223 -1.2966385863241743 C 1.0798134888000364 -1.2825338597616138 1.0942474306162386 -1.2685178781804698 1.1083349807307832 -1.2541583676390036 C 1.112769367060275 -1.2496352363280954 1.1171894396830868 -1.245112105017187 1.1215093163591379 -1.2404801895355098 C 1.123281353246133 -1.23858219202973 1.1256803304857161 -1.236795841436055 1.1269427994149 -1.2345170993325842 C 1.1284056602376051 -1.2216261750964956 1.1272090343591497 -1.2079594479583458 1.1272147598418216 -1.1949826414821763 C 1.1272262108071658 -1.1698563607759467 1.1272118971004856 -1.144727217328381 1.1271975833938057 -1.1195980738808151 C 1.1271918579111335 -1.1097502436849134 1.126141231840815 -1.0992869241017678 1.1271517795324295 -1.0895049369565943 C 1.1311596174028544 -1.08178698631469 1.140506467864953 -1.0758038569224122 1.1465039109639108 -1.0696031591885973 C 1.1607059707318959 -1.0549172961348252 1.1749051677585451 -1.0402142566330372 1.1890242080277855 -1.0254510995631922 C 1.2220316156320727 -0.9909407527574956 1.2546697296040137 -0.9561097789221651 1.2875368628828359 -0.9214706087563477 C 1.2981690842048066 -0.9102658391671734 1.3078852282992517 -0.8977756987181269 1.318921096149601 -0.8870289677427154 C 1.3180221953700912 -0.9100625845323163 1.3190270175790335 -0.9333595735248302 1.3190270175790335 -0.956421817727791 C 1.3190241548376975 -0.9737242263626837 1.3177273330124812 -0.9915905950407717 1.319110037077778 -1.0088328861076081 C 1.3197226637236859 -1.0227572599659993 1.3190241548376975 -1.0369364178032963 1.3190127038723536 -1.050892281816384 C 1.3189926646830012 -1.0804758507827934 1.3189697627523131 -1.110056557007867 1.3189726254936491 -1.1396372632329408 C 1.3189754882349851 -1.1596764525850665 1.3189697627523131 -1.1797156419371926 1.3189869392003293 -1.1997548312893183 C 1.3189926646830012 -1.2104357192140012 1.3198285851531184 -1.2214429596509904 1.318737880704096 -1.232072318231625 C 1.3197484283957102 -1.2363206263742756 1.3190699586990737 -1.2416653644486213 1.3190670959577377 -1.2460424959513927 C 1.3190585077337296 -1.255289150466731 1.3188896059949047 -1.264535804982069 1.3188523903575367 -1.2737795967560708 C 1.318775096341464 -1.2918978866717286 1.3221846212726613 -1.3100963333447946 1.3298710817598696 -1.3266114881122824 C 1.3383991881998671 -1.3449387581454695 1.3527300713279728 -1.3583249366326895 1.3671697386268478 -1.371960173616143 C 1.3785834883335513 -1.3827383947462506 1.3897882579227259 -1.3937198705112157 1.4008241257730747 -1.4048845617216856 C 1.4532838607556045 -1.4579511978674509 1.5070776332007179 -1.5096923847746395 1.5596203876819918 -1.562681726904332 C 1.5807531442244762 -1.583994836150986 1.602381155018092 -1.6048041029225004 1.6234881468885523 -1.6261401140998424 C 1.6394651062848686 -1.6422859752349837 1.6563066135646622 -1.657970935015026 1.6668357761985364 -1.6784137708955305 C 1.6754325884305987 -1.695106415625851 1.6772389782136259 -1.7156065063330759 1.6746796874592258 -1.733956678296951 C 1.6735002380287862 -1.742398902496868 1.670565928159368 -1.7504832840297828 1.6670447563160657 -1.7582069601543593 C 1.663197231960458 -1.7666434588716042 1.6582532776731544 -1.7744730564256133 1.6521298739554122 -1.7814524198028252 C 1.6198410144264652 -1.8182672733840162 1.5640690877181633 -1.8248344020088414 1.523232082559867 -1.7986689461976373 C 1.5074555150570723 -1.7885606065401578 1.4946476103197277 -1.7744988210976376 1.4817538233423027 -1.7610897406797292 C 1.4702398776888386 -1.749109168188494 1.4583079718003158 -1.7375379677083096 1.4466995556827627 -1.7256490029398268 C 1.3984967170668923 -1.676275303117525 1.3492632915700553 -1.6277403865066764 1.2999325328677938 -1.5794974695121016 C 1.2835519269430988 -1.563474706254409 1.2667361843353293 -1.548001589333232 1.2501294218450891 -1.532230747313109 C 1.2391164559254282 -1.5217674277299633 1.2290653710946688 -1.5107086579489257 1.215994094154411 -1.5026614920533794 C 1.2012652899805984 -1.4935923275008745 1.1837109601081361 -1.4879727662582711 1.1665144729026764 -1.486177827440588 C 1.1549404096811557 -1.4849697505967883 1.1431487781180976 -1.4855537498293359 1.131531773776537 -1.485550887088 C 1.112445877289305 -1.485545161605328 1.093362843543409 -1.4855537498293359 1.0742769470561775 -1.4855566125706718 C 1.0615549245589135 -1.485559475312008 1.0488329020616498 -1.4855193969333038 1.0361080168230499 -1.4855480243466639 C 1.0329360994227421 -1.4855537498293359 1.024639875030962 -1.4869135519639445 1.0233087003097134 -1.4839735166118542 C 1.0223124663247793 -1.484294143641488 1.021986113812473 -1.485207358127678 1.0209154485528025 -1.4854134755038713 C 1.0163465133805178 -1.4862923370940286 1.0111592260796534 -1.4856739849654488 1.0065273105979762 -1.4856167301387284 C 0.9988923794548162 -1.4855251224159758 0.9912574483116563 -1.4855566125706718 0.9836225171684965 -1.485559475312008 C 0.9575400808560367 -1.485568063536016 0.9314576445435769 -1.485568063536016 0.9053752082311174 -1.485559475312008 C 0.896245926110556 -1.4855566125706718 0.8871166439899948 -1.4856281811040724 0.8779873618694334 -1.485559475312008 C 0.8756256002672186 -1.485542298863992 0.8698027843897581 -1.486515630918238 0.869633882650933 -1.4839277127504777 C 0.867068866413861 -1.486515630918238 0.8619187947503646 -1.4856625340001046 0.8585350344911914 -1.4856625340001046 C 0.8490192822902677 -1.4856625340001046 0.839503530089344 -1.485545161605328 0.8299877778884203 -1.485545161605328 C 0.7912777895427852 -1.4855480243466639 0.7524933699224139 -1.486177827440588 0.7137976952834589 -1.485542298863992 C 0.731486573998714 -1.4685376153280452 0.7490723940258724 -1.451306775226553 0.7665608808476061 -1.434098837055749 C 0.7714189528948286 -1.429318059024599 0.7763543189581236 -1.4246174377508574 0.7810864303865613 -1.4197106991009227 C 0.7841266616854123 -1.416555958148631 0.78694646190139 -1.412728472982375 0.7908426528597106 -1.4106129071350577 Z" fill="#0e3756" transform="matrix(1,0,0,1,0,0)" fill-rule="evenodd"></path></g><g clip-path="url(#SvgjsClipPath1756394d2799f-f10e-44ef-bbdf-3feaba807a62)"><path d=" M 0.045582338112817145 -0.3836702958893403 C 0.04688488542070532 -0.40226666360811336 0.06119286661812313 -0.4149858233640411 0.0735026543630004 -0.4272812974022382 C 0.09561160570106716 -0.4493644840682809 0.11802973310342386 -0.4712644552888181 0.1395174695715747 -0.4939545431180967 C 0.15100851329435083 -0.5060839781588047 0.16201861647267593 -0.5205723120603916 0.1777064389940544 -0.5273827736987782 C 0.1954182196399976 -0.5350720969273226 0.21769034723421737 -0.5292092026711579 0.23002017416844672 -0.5144947122040253 C 0.23845953562702768 -0.5044207254425781 0.2422383541905714 -0.49211952592170927 0.24173737445676827 -0.47909691558416356 C 0.24102741460543586 -0.46058929284680716 0.22533672934272134 -0.44795601533095986 0.2133103529901099 -0.4357263843434911 C 0.19141896999358046 -0.4134685704559513 0.17008009607490254 -0.3906954631279287 0.14851792833201521 -0.368125610434763 C 0.13648296375539568 -0.35552668581494773 0.12473999879504996 -0.3398130986215453 0.10820766757954621 -0.3329825977938061 C 0.10348700711645258 -0.3310359336853139 0.09836270012498043 -0.33068381650098355 0.09331282440824475 -0.33077828696507217 C 0.06558431182757468 -0.33129644314689166 0.04366143867634908 -0.3562480966316244 0.045582338112817145 -0.3836702958893403 Z" fill="#fd9104" transform="matrix(1,0,0,1,0,0)" fill-rule="evenodd"></path></g><g clip-path="url(#SvgjsClipPath1756394d2799f-f10e-44ef-bbdf-3feaba807a62)"><path d=" M 0.2081974969639818 -1.283049153202097 C 0.2107682386837259 -1.2825395852442858 0.21056784679020465 -1.2794793147560828 0.2103187882939711 -1.2770746120338274 C 0.20960882844263862 -1.2701610917073443 0.20922808384494823 -1.2633763947409815 0.2087757707138574 -1.25643997248381 C 0.20692930255212583 -1.2279900490864635 0.20704953768823856 -1.1999723996308558 0.21091710123319887 -1.1716942407136703 C 0.22024391250594538 -1.1035466832097625 0.24050925842361656 -1.0361892423145957 0.2702903565422115 -0.9741879904591186 C 0.277553131311689 -0.9590669907222716 0.2845410829129089 -0.9439574419507688 0.29323236560905946 -0.9295750294786146 C 0.2964386359053996 -0.9242646443003012 0.3001974152795912 -0.9160857923032979 0.3052530164789989 -0.9123756795318185 C 0.3047692131932119 -0.9104461918713425 0.3008672967522194 -0.9081044694584797 0.29939012222283407 -0.9066673733077988 C 0.29441181503949887 -0.9018064385192404 0.28963103700834886 -0.8967279353891444 0.2847472002891022 -0.8917668046538252 C 0.2694773380027824 -0.8762564720952799 0.2539870446335891 -0.860952256912928 0.2388918095687664 -0.8452730226155574 C 0.23456334466870724 -0.8407756559766733 0.23024060525132015 -0.836272563855117 0.2259493559886292 -0.8317437070615366 C 0.22439775018450744 -0.8301062190173343 0.22236520383593467 -0.8272434776813165 0.22022959879926532 -0.826416145435207 C 0.20646840119702695 -0.8718564386618204 0.1902824616831813 -0.9165753210717571 0.18300537320702367 -0.9637275336173089 C 0.16984248854401301 -1.049000009793276 0.17435130614824132 -1.1361447188029992 0.1914275582175885 -1.2204753530794163 C 0.19573312118695954 -1.2417426584646938 0.20264950425477893 -1.2621311022598136 0.2081974969639818 -1.283049153202097 Z" fill="#049ac9" transform="matrix(1,0,0,1,0,0)" fill-rule="evenodd"></path></g><g clip-path="url(#SvgjsClipPath1756394d2799f-f10e-44ef-bbdf-3feaba807a62)"><path d=" M 0.8500813593259303 -1.212316540271765 C 0.8494830463867026 -1.2106704640035546 0.8475392450195465 -1.2092448188182179 0.8463082662450587 -1.2080224282677383 C 0.8436945834052743 -1.2054259218759698 0.8411066652375141 -1.2028065135535133 0.8385187470697538 -1.2001842424897209 C 0.828513466100371 -1.1900558636428893 0.8183392833921631 -1.1800877983108748 0.8082481201826998 -1.170045301704124 C 0.773694832256963 -1.135658052775876 0.7396396613236931 -1.1007268829937846 0.7054699807369827 -1.0659588894678467 C 0.5959615364102875 -0.9545238202220111 0.485634348061491 -0.8439046322569408 0.3747174349974749 -0.7338751690070904 C 0.3444725727824451 -0.7038765025469582 0.3136465740762036 -0.6744303451646774 0.28402006398975366 -0.6438133265759649 C 0.27486501719716816 -0.6343519664604258 0.2658158918340154 -0.6246844889686931 0.2561884927209869 -0.6157012066562684 C 0.2526072033096285 -0.6123603875171357 0.24834744420163374 -0.6066950224131562 0.24371839146129273 -0.6050088677662415 C 0.24229847175862776 -0.6056587100495177 0.24137666904843003 -0.6074880017632331 0.24043768989021613 -0.6087218432790569 C 0.23802153620261693 -0.6119023489033726 0.2355939315496737 -0.6150685408210086 0.23312911125936225 -0.6182061053252843 C 0.2259522187299652 -0.6273353874458456 0.21875528701121608 -0.6364188657050307 0.21141235548432993 -0.645410736241463 C 0.20847804561491154 -0.6490034766181656 0.20499695215031366 -0.6548434689436422 0.20101201621057668 -0.6572023678045211 C 0.19940888106240662 -0.6593322473585184 0.20515440292379467 -0.6639956529948916 0.20694934174147794 -0.6658449838979592 C 0.21441250840447676 -0.6735314443851674 0.22188426329148364 -0.6811950029416878 0.22954209636533174 -0.6886925225007186 C 0.2628243271378766 -0.7212791071286111 0.2956571075206667 -0.7543265931116028 0.32856718191952927 -0.7872881968545136 C 0.3871474578784649 -0.8459629432775377 0.4453670284290624 -0.9050041205915722 0.5036295400997 -0.9639880430788866 C 0.5422536462052544 -1.003093089728892 0.5815104181460687 -1.0415597450609653 0.6199885244434863 -1.0808136542604436 C 0.6496551129086405 -1.1110785556648257 0.6801060924998636 -1.1405533404604666 0.7095751518128326 -1.171010045534362 C 0.7190737275657402 -1.1808263855755676 0.728443479958527 -1.1907543725288776 0.737861898954026 -1.2006422811034838 C 0.7419384426165155 -1.2049220794008306 0.7465674953568566 -1.211512109956344 0.7516774886416486 -1.2144349688604184 C 0.7634433555326825 -1.2156058300668497 0.7756586728134712 -1.2142803808282734 0.787438853411185 -1.2137908520598144 C 0.797461310828584 -1.2133728918247557 0.8075553367793834 -1.2136563032170216 0.8175863824207904 -1.2136305385449973 C 0.8256965286257292 -1.2136076366143094 0.8338152630546761 -1.2137164207850777 0.8419254092596151 -1.213599048390301 C 0.8444159942219508 -1.213561832752933 0.8469065791842865 -1.2136190875796533 0.849397164146622 -1.213596185648965 C 0.8500040653098578 -1.213590460166293 0.8509344562440637 -1.2141429692441443 0.8512207303776655 -1.2136076366143094 C 0.8514926908045871 -1.2131009313978338 0.8504621039236206 -1.2127459514721677 0.8500813593259303 -1.212316540271765 Z" fill="#ffbe2f" transform="matrix(1,0,0,1,0,0)" fill-rule="evenodd"></path></g><g clip-path="url(#SvgjsClipPath1756394d2799f-f10e-44ef-bbdf-3feaba807a62)"><path d=" M 0.2081974969639818 -1.283049153202097 C 0.210782552390406 -1.2890322825943745 0.21259180491476934 -1.2954104702910225 0.21480470396751125 -1.301539599491437 C 0.2204443043994666 -1.3171701671860951 0.2264904141011366 -1.332915244534194 0.23292299388316895 -1.3482366361645624 C 0.2433662742769625 -1.3731109956332221 0.2567180998681503 -1.3966828077939941 0.27037623878229206 -1.4198796008397478 C 0.2837395153388239 -1.4425754141516982 0.29766388919721526 -1.4652855411703287 0.3148403372133231 -1.4853562206771507 C 0.3310176885031606 -1.5042531762362055 0.34600986487988666 -1.5241721304522184 0.3634496850989082 -1.54197838156225 C 0.36914654035758393 -1.5477954719570386 0.37469453306678674 -1.553758562159964 0.3803971138081345 -1.5595613388480725 C 0.38230083679658655 -1.5614994147325567 0.38425036364641474 -1.563932744868172 0.38650047833652484 -1.5654499977762615 C 0.3875253397348193 -1.5661399184382419 0.388587416770482 -1.5684386997310642 0.38905118086691687 -1.566497761105244 C 0.3839096974274286 -1.5519178194809045 0.3763663740070212 -1.5382539550840908 0.37061512666296115 -1.5238915818012886 C 0.36409952738218426 -1.5076197600473624 0.35872329915314244 -1.4907897037329128 0.3537621684178234 -1.4739882748318234 C 0.34920468421088274 -1.4585523735480146 0.3442607299235797 -1.4433683935017751 0.34084547950971034 -1.4276061397056603 C 0.3298239253660411 -1.3767352261646209 0.3257559699275596 -1.3245388633850053 0.3274335363504661 -1.2725629316882632 C 0.3292027104961252 -1.2178015526715755 0.33604466228920815 -1.1634180555112423 0.35228499388843804 -1.1108838892539765 C 0.35998290534099037 -1.0859837651132924 0.36858544305572444 -1.0613556013995296 0.3794695856152647 -1.037657828619973 C 0.38255275803415606 -1.030944700187011 0.3858706752426009 -1.0242516109434008 0.3894748665846476 -1.0178018547133523 C 0.3918595301175505 -1.0135420956053576 0.3949369770537698 -1.009479865649548 0.39678058247416537 -1.0049538715973036 C 0.3965028965645716 -1.0029385016967471 0.392586666416899 -1.0003620344943307 0.3911209428528578 -0.9988819972236095 C 0.38581628315721656 -0.9935258081839199 0.3806919761657444 -0.987980678216053 0.3754417085554874 -0.9825672343496432 C 0.3591383966468651 -0.9657457662592015 0.3427291633088101 -0.9489930039608244 0.3260909106638737 -0.932503613865361 C 0.32125574054733935 -0.9277113848688667 0.3162144530546117 -0.92313672421391 0.31141077309277354 -0.9183072795800479 C 0.3096730891018107 -0.916561007365077 0.3075145821344531 -0.9132860312766722 0.3052530164789989 -0.9123756795318185 C 0.3001974152795912 -0.9160857923032979 0.2964386359053996 -0.9242646443003012 0.29323236560905946 -0.9295750294786146 C 0.2845410829129089 -0.9439574419507688 0.277553131311689 -0.9590669907222716 0.2702903565422115 -0.9741879904591186 C 0.24050925842361656 -1.0361892423145957 0.22024391250594538 -1.1035466832097625 0.21091710123319887 -1.1716942407136703 C 0.20704953768823856 -1.1999723996308558 0.20692930255212583 -1.2279900490864635 0.2087757707138574 -1.25643997248381 C 0.20922808384494823 -1.2633763947409815 0.20960882844263862 -1.2701610917073443 0.2103187882939711 -1.2770746120338274 C 0.21056784679020465 -1.2794793147560828 0.2107682386837259 -1.2825395852442858 0.2081974969639818 -1.283049153202097 Z" fill="#01daf1" transform="matrix(1,0,0,1,0,0)" fill-rule="evenodd"></path></g><g clip-path="url(#SvgjsClipPath1756394d2799f-f10e-44ef-bbdf-3feaba807a62)"><path d=" M 0.24371839146129273 -0.6050088677662415 C 0.24834744420163374 -0.6066950224131562 0.2526072033096285 -0.6123603875171357 0.2561884927209869 -0.6157012066562684 C 0.2658158918340154 -0.6246844889686931 0.27486501719716816 -0.6343519664604258 0.28402006398975366 -0.6438133265759649 C 0.3136465740762036 -0.6744303451646774 0.3444725727824451 -0.7038765025469582 0.3747174349974749 -0.7338751690070904 C 0.485634348061491 -0.8439046322569408 0.5959615364102875 -0.9545238202220111 0.7054699807369827 -1.0659588894678467 C 0.7396396613236931 -1.1007268829937846 0.773694832256963 -1.135658052775876 0.8082481201826998 -1.170045301704124 C 0.8183392833921631 -1.1800877983108748 0.828513466100371 -1.1900558636428893 0.8385187470697538 -1.2001842424897209 C 0.8411066652375141 -1.2028065135535133 0.8436945834052743 -1.2054259218759698 0.8463082662450587 -1.2080224282677383 C 0.8475392450195465 -1.2092448188182179 0.8494830463867026 -1.2106704640035546 0.8500813593259303 -1.212316540271765 C 0.8526377873389942 -1.2142431651909051 0.8558297439286543 -1.2136305385449973 0.8588842889341856 -1.2136305385449973 C 0.8648387909131029 -1.2136334012863335 0.8707961556333563 -1.2136391267690054 0.8767506576122737 -1.2136362640276692 C 0.8913821285806616 -1.2136276758036613 0.9060135995490495 -1.2136391267690054 0.9206450705174372 -1.2136334012863335 C 0.9291073339067063 -1.2136305385449973 0.9378988125496175 -1.2130293628644337 0.9463038211121664 -1.2139654792813115 C 0.9392986930629303 -1.2056749803722036 0.9307791748469408 -1.1983664017413496 0.9229438518102596 -1.1908602939583104 C 0.914893823173377 -1.183142343316406 0.9072789312195693 -1.1749234129406982 0.8994493336655602 -1.1669793057332485 C 0.8685460409432462 -1.1356294253625157 0.8378975321998378 -1.1040362119782214 0.8069713375468358 -1.072712096279513 C 0.7758476137416485 -1.041187588687283 0.7440940868425371 -1.0103272370850096 0.712523775388931 -0.9792607681065424 C 0.7003113208494783 -0.967245842719275 0.6886599636118852 -0.9546526435821319 0.6765562932432013 -0.9425203458000878 C 0.6172546064675891 -0.8830841101816826 0.557970096139993 -0.8236335608565977 0.49861688002033255 -0.7642374036168968 C 0.4488395336696521 -0.7144285671115203 0.39944579465799807 -0.6642074958537572 0.3490758608507619 -0.6149969722876081 C 0.33662866152175586 -0.6028360470922038 0.32417001122740563 -0.590612141587407 0.3123755169230116 -0.5778128250740708 C 0.3047806641585559 -0.5695681300263391 0.2978242027120323 -0.5591477515632337 0.28767005919317656 -0.5537228567314796 C 0.2840315149550977 -0.5556695208399718 0.28075081338402114 -0.5606821809193392 0.27796822880541167 -0.5637166867355183 C 0.2698580826004728 -0.5725539692398056 0.2624407197988502 -0.5819408980806087 0.25477716124233013 -0.5911589251825866 C 0.25154798901530184 -0.5950408024342269 0.24511254649193348 -0.6001164428229868 0.24371839146129273 -0.6050088677662415 Z" fill="#fda204" transform="matrix(1,0,0,1,0,0)" fill-rule="evenodd"></path></g><g clip-path="url(#SvgjsClipPath1756394d2799f-f10e-44ef-bbdf-3feaba807a62)"><path d=" M 0.24695042642965698 -0.35313629679937275 C 0.24850203223377873 -0.38089343679340315 0.27757030775970515 -0.406056933137001 0.3052845066336951 -0.40235827133086577 C 0.3240955799526692 -0.3998476471791781 0.33861826675028833 -0.38755789862365275 0.3467541776272514 -0.3707965481012676 C 0.350195192713145 -0.3637112632946231 0.3509480936845178 -0.3552489999053541 0.35048719232941883 -0.3474795199194014 C 0.3485662928929507 -0.3149931312382692 0.3129652416382313 -0.2900042621161687 0.28190163540110036 -0.2995887201091567 C 0.2675335366356261 -0.3040231064386485 0.2562629239957234 -0.3163729725622302 0.25058038244372777 -0.3299824448736597 C 0.24756305307556484 -0.3372080040057692 0.24651528974658224 -0.34534677762406796 0.24695042642965698 -0.35313629679937275 Z" fill="#f24562" transform="matrix(1,0,0,1,0,0)" fill-rule="evenodd"></path></g><g clip-path="url(#SvgjsClipPath1756394d2799f-f10e-44ef-bbdf-3feaba807a62)"><path d=" M 0.38905118086691687 -1.566497761105244 C 0.3902334930386923 -1.5709149709867198 0.39651148478857967 -1.574622221016863 0.3997606962049601 -1.5775479426622734 C 0.40907891925369855 -1.585944363000814 0.41818529944357175 -1.5945726653875723 0.4275750910257106 -1.6028946544513765 C 0.46792256741554783 -1.6386474309969048 0.5117139216326148 -1.6717693482546327 0.5596906036829399 -1.696500570656492 C 0.5550815901319509 -1.6880755229045912 0.5481136777200832 -1.6806667483269766 0.5429664687979229 -1.672462131657949 C 0.5277424103729793 -1.6481975360938608 0.5125355283960519 -1.6229452947688463 0.5007410340916578 -1.596797015405658 C 0.48029819821115355 -1.5514712318324857 0.46415806255868425 -1.5033657264220397 0.45516046653957976 -1.4543928103867805 C 0.4504340805938141 -1.428665353999987 0.4485847496907465 -1.4023624866046538 0.44729937883087445 -1.3763000894815463 C 0.44519526394890124 -1.3336652827642306 0.44669247766763864 -1.290071457699349 0.4536890174928665 -1.2479233170091566 C 0.4599870484321061 -1.2100005825309266 0.47018413307100204 -1.1731771407257274 0.482774469466809 -1.136914796222388 C 0.4856858774055393 -1.1285241013665193 0.4889236378565756 -1.1202450534227553 0.49187798691534623 -1.1118686722735667 C 0.49248202533724605 -1.110151027471956 0.4938904940745668 -1.1043568390078553 0.4957312367536264 -1.1044999760746563 C 0.49458327747788317 -1.1020151165949927 0.49091038034377216 -1.099991158470428 0.48893795156325576 -1.098050219844608 C 0.4838021936064395 -1.0930003441278722 0.47872941595901575 -1.0878874881017442 0.4736365991222397 -1.0827918085236323 C 0.4557330148067833 -1.064879635984168 0.4381729594516492 -1.0466267972257173 0.420461178805706 -1.0285256837580756 C 0.41495898995787944 -1.0229003970328003 0.40931080130191605 -1.0174067964089817 0.40386873002214585 -1.0117242548569862 C 0.40213963425519095 -1.0099150023326229 0.3992339517991328 -1.0053975965043864 0.39678058247416537 -1.0049538715973036 C 0.3949369770537698 -1.009479865649548 0.3918595301175505 -1.0135420956053576 0.3894748665846476 -1.0178018547133523 C 0.3858706752426009 -1.0242516109434008 0.38255275803415606 -1.030944700187011 0.3794695856152647 -1.037657828619973 C 0.36858544305572444 -1.0613556013995296 0.35998290534099037 -1.0859837651132924 0.35228499388843804 -1.1108838892539765 C 0.33604466228920815 -1.1634180555112423 0.3292027104961252 -1.2178015526715755 0.3274335363504661 -1.2725629316882632 C 0.3257559699275596 -1.3245388633850053 0.3298239253660411 -1.3767352261646209 0.34084547950971034 -1.4276061397056603 C 0.3442607299235797 -1.4433683935017751 0.34920468421088274 -1.4585523735480146 0.3537621684178234 -1.4739882748318234 C 0.35872329915314244 -1.4907897037329128 0.36409952738218426 -1.5076197600473624 0.37061512666296115 -1.5238915818012886 C 0.3763663740070212 -1.5382539550840908 0.3839096974274286 -1.5519178194809045 0.38905118086691687 -1.566497761105244 Z" fill="#74f2fb" transform="matrix(1,0,0,1,0,0)" fill-rule="evenodd"></path></g><g clip-path="url(#SvgjsClipPath1756394d2799f-f10e-44ef-bbdf-3feaba807a62)"><path d=" M 1.0211015267396437 -1.0384994745727623 C 1.0194726269194496 -1.039739041571258 1.018276001040994 -1.037995632097623 1.0169562772850895 -1.0367703788058074 C 1.0138788303488704 -1.0339133629524615 1.0109960498235002 -1.0308044258615459 1.0081762496075226 -1.0276954887706302 C 0.9957405012438604 -1.0139686440644242 0.9823915383940087 -1.0008601514867979 0.9693403006431028 -0.9877115805304674 C 0.9458228805677152 -0.9640109450095747 0.9219619315320053 -0.9406538384490041 0.898607687712771 -0.9167900266719582 C 0.8665478474907058 -0.8840374030465767 0.8349632223304195 -0.8509297994955292 0.8017754620219631 -0.8192993704738665 C 0.7667755864478074 -0.7859427084265851 0.7329036309600427 -0.7515926751357054 0.6990517146616305 -0.7170708773646648 C 0.6874919651467899 -0.7052792458016068 0.6765362540538491 -0.6927862426112243 0.6647961518348394 -0.6811921402003516 C 0.620426523867897 -0.6373721585699246 0.5770216397311926 -0.5925931585919315 0.5324086787506886 -0.5490136472337301 C 0.505215498799854 -0.5224502703768195 0.47822271074254047 -0.4956922271090596 0.4515219223015009 -0.46863073325968174 C 0.4441188732065585 -0.46112462547664257 0.4369963727625458 -0.4532778514746172 0.42938720629141003 -0.4459807238091076 C 0.42699109179316297 -0.4436848052576212 0.4214373736012881 -0.4408392403696193 0.4203724338242894 -0.4379106559828727 C 0.40576386478658977 -0.4476239373359818 0.3917707851361339 -0.4586598051863311 0.37829299892616136 -0.4698989276715375 C 0.373140064521329 -0.4741959024169007 0.36629524998691004 -0.47853295554096786 0.3621900789110603 -0.4838376152366093 C 0.36258227447409475 -0.4881174135339559 0.3697706179688358 -0.49294399542648226 0.3726877513902382 -0.49594987382930134 C 0.3828791105464622 -0.5064475463084788 0.3930160776173018 -0.5169852971663609 0.4033562993229986 -0.527336969837402 C 0.44324573709907295 -0.5672636232508446 0.48381650731311965 -0.6065175324503229 0.5235942981770894 -0.6465586955172062 C 0.5453625832961698 -0.6684701177030876 0.5667415355935521 -0.6907880491586837 0.5886930361581377 -0.7125162558990603 C 0.6333031343973059 -0.7566683155244653 0.6786718590905186 -0.8000159448344495 0.722571997478354 -0.8448922780178669 C 0.7337767670675283 -0.8563461061032749 0.7459863588656449 -0.8669038961505091 0.7570222267159943 -0.8784922730787099 C 0.7893511646236452 -0.9124329343585389 0.8228108853590231 -0.945096813002504 0.8558898614967108 -0.9783103379829844 C 0.8926732249232056 -1.0152425639589522 0.9297772153793344 -1.0518570256466218 0.9667094413553023 -1.0886403890731169 C 0.979420012887222 -1.1012994312609883 0.9922250548832305 -1.113858277502099 1.005084488964623 -1.1263684571404977 C 1.0104120505909526 -1.13155001895869 1.0150640052619817 -1.138346166890397 1.0212561147717885 -1.142502867310295 C 1.0209154485528025 -1.1189797217522353 1.0212704284784686 -1.0954164978154715 1.0212761539611408 -1.0718876267747395 C 1.0212818794438128 -1.0608689353724066 1.0221721919993143 -1.0494694993723828 1.0211015267396437 -1.0384994745727623 Z" fill="#fb8f4f" transform="matrix(1,0,0,1,0,0)" fill-rule="evenodd"></path></g><g clip-path="url(#SvgjsClipPath1756394d2799f-f10e-44ef-bbdf-3feaba807a62)"><path d=" M 1.0211015267396437 -1.0384994745727623 C 1.0219947020364815 -1.0178762859880885 1.021293330409157 -0.9971013721126064 1.021299055891829 -0.9764610070799167 C 1.021299055891829 -0.9688289386780928 1.021296193150493 -0.961194007534933 1.0212818794438128 -0.9535619391331092 C 1.0212732912198048 -0.9496170815720762 1.021800035625632 -0.945265714741329 1.021153056083692 -0.9413781120070166 C 1.019255058577912 -0.9377166658382496 1.0141851436718243 -0.9346048660059981 1.011282323957102 -0.9316276150165393 C 1.0026998254317203 -0.9228218226669481 0.9939656016155295 -0.9141563046428216 0.9852542797300268 -0.9054764729120153 C 0.957568708269397 -0.8778853719154742 0.9299117642221274 -0.8503687021936694 0.9025582707564758 -0.8224426604608142 C 0.8563249981797856 -0.7752417813125498 0.8088149429672312 -0.7292146261120531 0.7621493964488025 -0.6823715896307911 C 0.733072532698868 -0.6531859417100878 0.7049117461764592 -0.6230584518898348 0.6759665685279816 -0.5937983726943952 C 0.6584036504315115 -0.5760407881870757 0.6400191255716039 -0.5589044185496721 0.6222214626855803 -0.5413472259358738 C 0.590462210303797 -0.5100145220131571 0.5590922907437121 -0.4782753088207261 0.5277395476316433 -0.4465360956282949 C 0.5170786988963124 -0.43574356079150744 0.5066010656064867 -0.4248193398532627 0.49624653019410964 -0.41373480540020124 C 0.49142281104291935 -0.40857328277136085 0.4851763094477281 -0.40326289759304745 0.4816121964843858 -0.39713376839263304 C 0.48084211906499696 -0.39889435431428377 0.4788124354577602 -0.40013964679545166 0.47734098641104694 -0.40131337074321904 C 0.4733045211272617 -0.40452822926356724 0.46881001722971344 -0.4070760690526236 0.46437849364155764 -0.4097012028577518 C 0.4543474480001507 -0.4156471166126614 0.44436220622012007 -0.4217161282450195 0.4345630426269306 -0.42803992385628287 C 0.43010575436675047 -0.43091697889898106 0.42384493906487924 -0.43388564166443166 0.4203724338242894 -0.4379106559828727 C 0.4214373736012881 -0.4408392403696193 0.42699109179316297 -0.4436848052576212 0.42938720629141003 -0.4459807238091076 C 0.4369963727625458 -0.4532778514746172 0.4441188732065585 -0.46112462547664257 0.4515219223015009 -0.46863073325968174 C 0.47822271074254047 -0.4956922271090596 0.505215498799854 -0.5224502703768195 0.5324086787506886 -0.5490136472337301 C 0.5770216397311926 -0.5925931585919315 0.620426523867897 -0.6373721585699246 0.6647961518348394 -0.6811921402003516 C 0.6765362540538491 -0.6927862426112243 0.6874919651467899 -0.7052792458016068 0.6990517146616305 -0.7170708773646648 C 0.7329036309600427 -0.7515926751357054 0.7667755864478074 -0.7859427084265851 0.8017754620219631 -0.8192993704738665 C 0.8349632223304195 -0.8509297994955292 0.8665478474907058 -0.8840374030465767 0.898607687712771 -0.9167900266719582 C 0.9219619315320053 -0.9406538384490041 0.9458228805677152 -0.9640109450095747 0.9693403006431028 -0.9877115805304674 C 0.9823915383940087 -1.0008601514867979 0.9957405012438604 -1.0139686440644242 1.0081762496075226 -1.0276954887706302 C 1.0109960498235002 -1.0308044258615459 1.0138788303488704 -1.0339133629524615 1.0169562772850895 -1.0367703788058074 C 1.018276001040994 -1.037995632097623 1.0194726269194496 -1.039739041571258 1.0211015267396437 -1.0384994745727623 Z" fill="#f7753c" transform="matrix(1,0,0,1,0,0)" fill-rule="evenodd"></path></g><g clip-path="url(#SvgjsClipPath1756394d2799f-f10e-44ef-bbdf-3feaba807a62)"><path d=" M 0.6980697943833764 -0.46794367533903714 C 0.7005489283803679 -0.4651353260884037 0.7045911191468253 -0.46329458340934426 0.707760173805797 -0.46134791930085184 C 0.7151374582287153 -0.4568104742832637 0.7227265855104988 -0.45276542077547033 0.7304531243764115 -0.44886350433447775 C 0.7563179923473339 -0.43580940384223577 0.7828928201695886 -0.42417522305265876 0.80957070667994 -0.412910335895428 C 0.8191437137075841 -0.40886814512897063 0.8288827597327172 -0.40547293390445316 0.8388994916674442 -0.40271897673920387 C 0.8419769386036634 -0.4018716053037428 0.8482005382681667 -0.40067784216662305 0.8493599485092539 -0.3972339643393936 C 0.8441068181576609 -0.39825310025501603 0.8384099628989851 -0.3975975324890677 0.8330623620833034 -0.3981357278602391 C 0.8184194401495716 -0.3996014514242805 0.803662008562399 -0.400946939852209 0.7890648904900432 -0.4028563883233327 C 0.7458546727641882 -0.4085074397206325 0.7026272785903168 -0.4179086822681153 0.6616843520025879 -0.432677564820632 C 0.6620479201522623 -0.43517387526563955 0.666948933319525 -0.43856336100748505 0.6687639113265604 -0.440326809670472 C 0.6756717061703718 -0.447037075362098 0.6825795010141832 -0.4537473410537243 0.6894844331166584 -0.46046333222802227 C 0.6914024698117905 -0.4623298395791062 0.6953902684928636 -0.46797230275239743 0.6980697943833764 -0.46794367533903714 Z" fill="#0386b6" transform="matrix(1,0,0,1,0,0)" fill-rule="evenodd"></path></g><g clip-path="url(#SvgjsClipPath1756394d2799f-f10e-44ef-bbdf-3feaba807a62)"><path d=" M 0.7851887387210751 -0.555036855004712 C 0.7890047729219871 -0.553144582981604 0.7925459839546412 -0.5500156067013364 0.7960814695046234 -0.5476080412377451 C 0.8033156168607408 -0.5426812633984581 0.8105239995448341 -0.5376743288017629 0.8178783820370641 -0.5329336291493172 C 0.8378374146317814 -0.5200627441025805 0.8588757007101776 -0.5086318179478606 0.8805437898824976 -0.49891567385341573 C 0.9389465758786 -0.4727273161115233 0.9997798292689818 -0.4543914578543282 1.0630177853816187 -0.4444148042983058 C 1.0817315254951683 -0.44146331798087113 1.1007773436036958 -0.44143469056751083 1.119430966149189 -0.4392990855308414 C 1.1157809709457658 -0.4349505814414303 1.106528590947756 -0.4331012505383629 1.1013012252681869 -0.43124046866995114 C 1.0838156011877893 -0.4250140062641117 1.0657144877201477 -0.4203906790064429 1.0475961978044899 -0.41643150773873017 C 1.013492360268508 -0.40897692929973917 0.97909079763358 -0.40068070490795904 0.944182529782177 -0.398109963188215 C 0.9201927573863463 -0.39634365178389186 0.8960798871130671 -0.3958455347914249 0.87202999714918 -0.39593141703150536 C 0.8673780424781509 -0.39594859347952127 0.8626688329804013 -0.39583980930875295 0.8580254665333802 -0.39618333826907537 C 0.8551942153520584 -0.39639231838660427 0.8521740232425595 -0.3973771014061942 0.8493599485092539 -0.3972339643393936 C 0.8482005382681667 -0.40067784216662305 0.8419769386036634 -0.4018716053037428 0.8388994916674442 -0.40271897673920387 C 0.8288827597327172 -0.40547293390445316 0.8191437137075841 -0.40886814512897063 0.80957070667994 -0.412910335895428 C 0.7828928201695886 -0.42417522305265876 0.7563179923473339 -0.43580940384223577 0.7304531243764115 -0.44886350433447775 C 0.7227265855104988 -0.45276542077547033 0.7151374582287153 -0.4568104742832637 0.707760173805797 -0.46134791930085184 C 0.7045911191468253 -0.46329458340934426 0.7005489283803679 -0.4651353260884037 0.6980697943833764 -0.46794367533903714 C 0.6983560685169782 -0.4699246923435618 0.7011615550262758 -0.4715106510437157 0.7026101021423008 -0.4729277080050447 C 0.7070215865411045 -0.4772361337157518 0.7114044435265479 -0.481570324098483 0.7157472221332872 -0.4859503183425904 C 0.7322394749700868 -0.5025857082461904 0.7482822774171314 -0.5196590975742019 0.7648575497526755 -0.5362114679790575 C 0.7698358569360106 -0.5411840496797209 0.7746910662418971 -0.5462768665164968 0.7796750989079045 -0.551240859993152 C 0.7811551361786258 -0.5527151717812013 0.7831504668898303 -0.5556781090639797 0.7851887387210751 -0.555036855004712 Z" fill="#059ecc" transform="matrix(1,0,0,1,0,0)" fill-rule="evenodd"></path></g><g clip-path="url(#SvgjsClipPath1756394d2799f-f10e-44ef-bbdf-3feaba807a62)"><path d=" M 0.869633882650933 -1.4839277127504777 C 0.875038738293335 -1.4770914864400668 0.8820810819799391 -1.4710740041517572 0.8884793088659393 -1.46517675699956 C 0.9013730958433642 -1.4532963804550856 0.9149195878454013 -1.4421402774686234 0.927776159185458 -1.4302112343214366 C 0.9325827018886322 -1.4257510833199207 0.9374722640905507 -1.4212136383023322 0.9418322191453061 -1.4163154878764055 C 0.9429200608529931 -1.4150930973259257 0.9458629589464194 -1.4126225515529423 0.945473626124721 -1.4108905930446514 C 0.9315206248529694 -1.411634905792016 0.9174416629624331 -1.411153965247565 0.9034686225013294 -1.411136788799549 C 0.8799311632365897 -1.4111081613861889 0.856390841230514 -1.4111310633168768 0.8328533819657741 -1.4111196123515328 C 0.8229969635458643 -1.4111138868688609 0.8131348196432825 -1.4110738084901566 0.8032784012233726 -1.411145377023557 C 0.7999948369109601 -1.411171141695581 0.7935450806809115 -1.412273297109948 0.7908426528597106 -1.4106129071350577 C 0.78694646190139 -1.412728472982375 0.7841266616854123 -1.416555958148631 0.7810864303865613 -1.4197106991009227 C 0.7763543189581236 -1.4246174377508574 0.7714189528948286 -1.429318059024599 0.7665608808476061 -1.434098837055749 C 0.7490723940258724 -1.451306775226553 0.731486573998714 -1.4685376153280452 0.7137976952834589 -1.485542298863992 C 0.7524933699224139 -1.486177827440588 0.7912777895427852 -1.4855480243466639 0.8299877778884203 -1.485545161605328 C 0.839503530089344 -1.485545161605328 0.8490192822902677 -1.4856625340001046 0.8585350344911914 -1.4856625340001046 C 0.8619187947503646 -1.4856625340001046 0.867068866413861 -1.486515630918238 0.869633882650933 -1.4839277127504777 Z" fill="#63f0fb" transform="matrix(1,0,0,1,0,0)" fill-rule="evenodd"></path></g><g clip-path="url(#SvgjsClipPath1756394d2799f-f10e-44ef-bbdf-3feaba807a62)"><path d=" M 0.8755425807684742 -0.6452074816066058 C 0.8776438329091113 -0.6427226221269422 0.8810705342883247 -0.6411681535814844 0.8837643738855178 -0.6393818029878091 C 0.8893381312667449 -0.6356802784403381 0.8947773398051788 -0.6317955384473615 0.9004312539438145 -0.6282085235533312 C 0.9206994626028216 -0.6153519522132744 0.9416890820785053 -0.6045307899631265 0.9632168969253603 -0.5939558234678759 C 1.0461218860164407 -0.5532304652216844 1.1380817259533458 -0.5335777459499211 1.230038703148915 -0.5310928864702575 C 1.246931739772757 -0.5306377105978306 1.2641940700289453 -0.5296786922502648 1.2810613419807633 -0.530388652101597 C 1.2806548327110487 -0.5277062634697482 1.2747232326628195 -0.5250152866138913 1.2726133922981742 -0.5234722690337779 C 1.2635785806417015 -0.5168793757369283 1.2543405143503716 -0.5104954625576081 1.2450509187149932 -0.5042661374104331 C 1.216354799562749 -0.4850313783737288 1.1867511914069875 -0.467731832480172 1.1550635075586047 -0.45379887039777267 C 1.1469218711989693 -0.45022044372775016 1.1388203132180386 -0.4464902917669187 1.130469696740874 -0.4434157075720355 C 1.1268998582948597 -0.4421017092988031 1.1231725690753642 -0.43996324152079747 1.119430966149189 -0.4392990855308414 C 1.1007773436036958 -0.44143469056751083 1.0817315254951683 -0.44146331798087113 1.0630177853816187 -0.4444148042983058 C 0.9997798292689818 -0.4543914578543282 0.9389465758786 -0.4727273161115233 0.8805437898824976 -0.49891567385341573 C 0.8588757007101776 -0.5086318179478606 0.8378374146317814 -0.5200627441025805 0.8178783820370641 -0.5329336291493172 C 0.8105239995448341 -0.5376743288017629 0.8033156168607408 -0.5426812633984581 0.7960814695046234 -0.5476080412377451 C 0.7925459839546412 -0.5500156067013364 0.7890047729219871 -0.553144582981604 0.7851887387210751 -0.555036855004712 C 0.7842526223041972 -0.5565855980674976 0.7881574014865257 -0.559213594613962 0.7894656742770859 -0.5604531616124577 C 0.794406765823053 -0.5651308809555113 0.7992304849742433 -0.5699259726933412 0.8040570668667695 -0.5747210644311713 C 0.8222497880571636 -0.5927906877441167 0.8401905880099884 -0.611169487121352 0.8581027605494527 -0.6295167963438912 C 0.8622565982280147 -0.633770829969214 0.8664705534746332 -0.6379618832851444 0.8706387048598754 -0.642198740462451 C 0.8722160753360211 -0.643801875610621 0.8734985834545573 -0.6465844601892303 0.8755425807684742 -0.6452074816066058 Z" fill="#00dbf4" transform="matrix(1,0,0,1,0,0)" fill-rule="evenodd"></path></g><g clip-path="url(#SvgjsClipPath1756394d2799f-f10e-44ef-bbdf-3feaba807a62)"><path d=" M 0.7908426528597106 -1.4106129071350577 C 0.7935450806809115 -1.412273297109948 0.7999948369109601 -1.411171141695581 0.8032784012233726 -1.411145377023557 C 0.8131348196432825 -1.4110738084901566 0.8229969635458643 -1.4111138868688609 0.8328533819657741 -1.4111196123515328 C 0.856390841230514 -1.4111310633168768 0.8799311632365897 -1.4111081613861889 0.9034686225013294 -1.411136788799549 C 0.9174416629624331 -1.411153965247565 0.9315206248529694 -1.411634905792016 0.945473626124721 -1.4108905930446514 C 0.954242202836944 -1.4117952193068333 0.9633628967334973 -1.4111196123515328 0.9721744145657607 -1.4111196123515328 C 0.9890330982935704 -1.4111167496101968 1.0058889192800442 -1.4111024359035167 1.022747603007854 -1.4111138868688609 C 1.0389707581590677 -1.4111224750928688 1.0551939133102817 -1.4111110241275249 1.0714170684614954 -1.4111253378342048 C 1.0802343117764308 -1.411133926058213 1.089377907603672 -1.4118209839788571 1.0981522097985672 -1.4108619656312913 C 1.1053605924826604 -1.4116520822400322 1.1128208964043234 -1.4112341220049736 1.1200693574671208 -1.4113371806930701 C 1.129834168164278 -1.411477455018535 1.1398995667017173 -1.4120070621656984 1.1496013970894823 -1.4106300835830736 C 1.1740434826164037 -1.407157578342484 1.2004837615958657 -1.395666534619708 1.2145083314010177 -1.3744249939064546 C 1.2189713451438695 -1.367668924353452 1.2228102812754695 -1.359847915023451 1.225249336893757 -1.3521156506748664 C 1.2297724682046653 -1.3377733165814165 1.2301875656983878 -1.3224862778470805 1.230227644077092 -1.307585709193107 C 1.2302448205251084 -1.3009670512242335 1.2291569788174215 -1.2932949044437052 1.2302534087491164 -1.2868136580589606 C 1.2288306263051154 -1.2698433274190462 1.2302906243864846 -1.2521115075837508 1.2302820361624767 -1.2350638829277638 C 1.2302705851971325 -1.2076502718940558 1.2294146255376632 -1.1802337981190116 1.2293344687802545 -1.1528516772399997 C 1.2292972531428865 -1.1408109871807084 1.2291541160760855 -1.1287702971214166 1.229105449473373 -1.1167296070621249 C 1.229088273025357 -1.112544279228867 1.2277685492694528 -1.105370249440806 1.2296207429138564 -1.1015399015332137 C 1.2322287002709689 -1.096152222338828 1.2393483379736454 -1.0915203068571508 1.2434535090494954 -1.0872147438877797 C 1.2549445527722713 -1.0751540146391363 1.2669365762288505 -1.0635914023829598 1.2785135021917073 -1.0516136926330604 C 1.2884872930063938 -1.0412992355993875 1.2988904950214832 -1.0312538762513006 1.3084577765664551 -1.0205615373612735 C 1.3109111458914227 -1.0178218939027044 1.3133530642510458 -1.0150650739961191 1.315749178749293 -1.0122767639348376 C 1.3165736482540662 -1.0113206083286075 1.317838979924586 -1.0091134347585378 1.319110037077778 -1.0088328861076081 C 1.3177273330124812 -0.9915905950407717 1.3190241548376975 -0.9737242263626837 1.3190270175790335 -0.956421817727791 C 1.3190270175790335 -0.9333595735248302 1.3180221953700912 -0.9100625845323163 1.318921096149601 -0.8870289677427154 C 1.3078852282992517 -0.8977756987181269 1.2981690842048066 -0.9102658391671734 1.2875368628828359 -0.9214706087563477 C 1.2546697296040137 -0.9561097789221651 1.2220316156320727 -0.9909407527574956 1.1890242080277855 -1.0254510995631922 C 1.1749051677585451 -1.0402142566330372 1.1607059707318959 -1.0549172961348252 1.1465039109639108 -1.0696031591885973 C 1.140506467864953 -1.0758038569224122 1.1311596174028544 -1.08178698631469 1.1271517795324295 -1.0895049369565943 C 1.126141231840815 -1.0992869241017678 1.1271918579111335 -1.1097502436849134 1.1271975833938057 -1.1195980738808151 C 1.1272118971004856 -1.144727217328381 1.1272262108071658 -1.1698563607759467 1.1272147598418216 -1.1949826414821763 C 1.1272090343591497 -1.2079594479583458 1.1284056602376051 -1.2216261750964956 1.1269427994149 -1.2345170993325842 C 1.1256803304857161 -1.236795841436055 1.123281353246133 -1.23858219202973 1.1215093163591379 -1.2404801895355098 C 1.1171894396830868 -1.245112105017187 1.112769367060275 -1.2496352363280954 1.1083349807307832 -1.2541583676390036 C 1.0942474306162386 -1.2685178781804698 1.0798134888000364 -1.2825338597616138 1.0654740174479223 -1.2966385863241743 C 1.0600892009948724 -1.3019346577958075 1.054899050952672 -1.30742539567829 1.04947988160359 -1.312681388771219 C 1.0473213746362322 -1.3147769154291842 1.0448107504845445 -1.3181406364990051 1.0420167149405908 -1.3193200859294447 C 1.0376624853685075 -1.3200386340047852 1.0328874328200295 -1.319572007167014 1.028475948421226 -1.3195576934603341 C 1.020523252989768 -1.3195319287883098 1.0125705575583102 -1.319534791529646 1.0046178621268522 -1.319534791529646 C 0.9788531901026905 -1.319537654270982 0.9530856553371927 -1.319511889598958 0.927320983313031 -1.3194918504096056 C 0.9174760158584652 -1.3194832621855976 0.9075795190598511 -1.3197351834231672 0.8977402770879576 -1.319380203497501 C 0.8940387525404863 -1.3192485173960442 0.888427779521891 -1.3178343231760514 0.8849924899186694 -1.3194374583242214 C 0.863584910207927 -1.3434587208747482 0.8385044333630737 -1.364625830313265 0.8150814837517747 -1.3866317229632352 C 0.8090267858260967 -1.3923228527392388 0.8028003234202575 -1.3978593944830977 0.7968687233720283 -1.4036822103605582 C 0.7952455490345061 -1.40527675728472 0.790942848806471 -1.4082797729462029 0.7908426528597106 -1.4106129071350577 Z" fill="#00dff5" transform="matrix(1,0,0,1,0,0)" fill-rule="evenodd"></path></g><g clip-path="url(#SvgjsClipPath1756394d2799f-f10e-44ef-bbdf-3feaba807a62)"><path d=" M 1.0233087003097134 -1.4839735166118542 C 1.024479561516145 -1.4815945785616231 1.0269615582544724 -1.479791051519932 1.0288566930189165 -1.4779846617369046 C 1.0324837862916512 -1.4745293329443308 1.0360822521510258 -1.471036788514389 1.0396778552690642 -1.467549969567119 C 1.0529495241028435 -1.4546676335550381 1.0665418199662569 -1.442060120711215 1.0802514882244467 -1.4296472742782411 C 1.085026540772925 -1.425324534860854 1.0900105734389323 -1.421041873822171 1.0944106068723918 -1.4163326643244216 C 1.0955013113214147 -1.4151675286006622 1.098584483740306 -1.4125252183475177 1.0981522097985672 -1.4108619656312913 C 1.089377907603672 -1.4118209839788571 1.0802343117764308 -1.411133926058213 1.0714170684614954 -1.4111253378342048 C 1.0551939133102817 -1.4111110241275249 1.0389707581590677 -1.4111224750928688 1.022747603007854 -1.4111138868688609 C 1.0058889192800442 -1.4111024359035167 0.9890330982935704 -1.4111167496101968 0.9721744145657607 -1.4111196123515328 C 0.9633628967334973 -1.4111196123515328 0.954242202836944 -1.4117952193068333 0.945473626124721 -1.4108905930446514 C 0.9458629589464194 -1.4126225515529423 0.9429200608529931 -1.4150930973259257 0.9418322191453061 -1.4163154878764055 C 0.9374722640905507 -1.4212136383023322 0.9325827018886322 -1.4257510833199207 0.927776159185458 -1.4302112343214366 C 0.9149195878454013 -1.4421402774686234 0.9013730958433642 -1.4532963804550856 0.8884793088659393 -1.46517675699956 C 0.8820810819799391 -1.4710740041517572 0.875038738293335 -1.4770914864400668 0.869633882650933 -1.4839277127504777 C 0.8698027843897581 -1.486515630918238 0.8756256002672186 -1.485542298863992 0.8779873618694334 -1.485559475312008 C 0.8871166439899948 -1.4856281811040724 0.896245926110556 -1.4855566125706718 0.9053752082311174 -1.485559475312008 C 0.9314576445435769 -1.485568063536016 0.9575400808560367 -1.485568063536016 0.9836225171684965 -1.485559475312008 C 0.9912574483116563 -1.4855566125706718 0.9988923794548162 -1.4855251224159758 1.0065273105979762 -1.4856167301387284 C 1.0111592260796534 -1.4856739849654488 1.0163465133805178 -1.4862923370940286 1.0209154485528025 -1.4854134755038713 C 1.021986113812473 -1.485207358127678 1.0223124663247793 -1.484294143641488 1.0233087003097134 -1.4839735166118542 Z" fill="#9dfcff" transform="matrix(1,0,0,1,0,0)" fill-rule="evenodd"></path></g><g clip-path="url(#SvgjsClipPath1756394d2799f-f10e-44ef-bbdf-3feaba807a62)"><path d=" M 0.9577605119389101 -0.7283615291939198 C 1.0091009150590564 -0.6954972586564334 1.0676611518286399 -0.6737232480546809 1.1269170347428756 -0.660357108756813 C 1.1779053206786918 -0.6488546140686926 1.229051057387989 -0.6427369358336223 1.2813447533730289 -0.6429001120897753 C 1.3129608686880114 -0.6430003080365359 1.3440359258904866 -0.6449813250410603 1.3751081203516256 -0.6511276306894909 C 1.3848528918594305 -0.653054255608631 1.3941510757188171 -0.6556622129657435 1.4037154945224528 -0.658293072253544 C 1.4072967839338115 -0.6592778552731342 1.4112273277881644 -0.6598389525749937 1.4145939115993211 -0.6611357744002098 C 1.383793677565104 -0.6244182540244432 1.3524810128317395 -0.5890977514206537 1.315900904040102 -0.5579224982714179 C 1.3073756603414406 -0.5506539980192682 1.2987158677999862 -0.5435744386952959 1.2899129381917307 -0.5366380164381241 C 1.2877572939657094 -0.5349375480845295 1.2857047084277844 -0.5331225700774942 1.2834860838923703 -0.5314993957399721 C 1.282773261299702 -0.5309783768168168 1.2818915369682085 -0.5300365349172669 1.2810613419807633 -0.530388652101597 C 1.2641940700289453 -0.5296786922502648 1.246931739772757 -0.5306377105978306 1.230038703148915 -0.5310928864702575 C 1.1380817259533458 -0.5335777459499211 1.0461218860164407 -0.5532304652216844 0.9632168969253603 -0.5939558234678759 C 0.9416890820785053 -0.6045307899631265 0.9206994626028216 -0.6153519522132744 0.9004312539438145 -0.6282085235533312 C 0.8947773398051788 -0.6317955384473615 0.8893381312667449 -0.6356802784403381 0.8837643738855178 -0.6393818029878091 C 0.8810705342883247 -0.6411681535814844 0.8776438329091113 -0.6427226221269422 0.8755425807684742 -0.6452074816066058 C 0.874738150453053 -0.6473287729365951 0.8768222261456742 -0.6483879872309217 0.8783137143817397 -0.6499281420696994 C 0.8821641014786836 -0.6539016270440923 0.8860889198503642 -0.6578035434850849 0.8899765225846766 -0.6617455383047814 C 0.9062254424079147 -0.678226340176237 0.922666165900666 -0.6945153383781792 0.9389637523266162 -0.7109474736469223 C 0.9435584521709252 -0.7155822518699355 0.9485596612849484 -0.7200767557674836 0.9528394595822951 -0.7249920826414267 C 0.9543681634557288 -0.7267469430804054 0.9556449460915929 -0.7297127431045201 0.9577605119389101 -0.7283615291939198 Z" fill="#72f2fc" transform="matrix(1,0,0,1,0,0)" fill-rule="evenodd"></path></g><g clip-path="url(#SvgjsClipPath1756394d2799f-f10e-44ef-bbdf-3feaba807a62)"><path d=" M 1.318737880704096 -1.232072318231625 C 1.3165078052033379 -1.2328194937203256 1.314950473916544 -1.2352127454772368 1.313401730853758 -1.2369189393135036 C 1.3100179705945851 -1.240657679498343 1.3068460531942772 -1.2445824978700237 1.303502371313808 -1.2483584536922314 C 1.295188970474012 -1.257739657050362 1.2864776485885092 -1.266831723533555 1.277525856430781 -1.2756060257284503 C 1.2734808029229876 -1.2795680597374992 1.2693298279857617 -1.284637974643587 1.264451716749187 -1.2875636962889971 C 1.257458039665295 -1.2892441254532399 1.248832600019873 -1.2874348729288765 1.2416471192664678 -1.2873804808434923 C 1.2380715553377815 -1.287351853430132 1.2336142670776014 -1.2880732642468085 1.2302534087491164 -1.2868136580589606 C 1.2291569788174215 -1.2932949044437052 1.2302448205251084 -1.3009670512242335 1.230227644077092 -1.307585709193107 C 1.2301875656983878 -1.3224862778470805 1.2297724682046653 -1.3377733165814165 1.225249336893757 -1.3521156506748664 C 1.2228102812754695 -1.359847915023451 1.2189713451438695 -1.367668924353452 1.2145083314010177 -1.3744249939064546 C 1.2004837615958657 -1.395666534619708 1.1740434826164037 -1.407157578342484 1.1496013970894823 -1.4106300835830736 C 1.1398995667017173 -1.4120070621656984 1.129834168164278 -1.411477455018535 1.1200693574671208 -1.4113371806930701 C 1.1128208964043234 -1.4112341220049736 1.1053605924826604 -1.4116520822400322 1.0981522097985672 -1.4108619656312913 C 1.098584483740306 -1.4125252183475177 1.0955013113214147 -1.4151675286006622 1.0944106068723918 -1.4163326643244216 C 1.0900105734389323 -1.421041873822171 1.085026540772925 -1.425324534860854 1.0802514882244467 -1.4296472742782411 C 1.0665418199662569 -1.442060120711215 1.0529495241028435 -1.4546676335550381 1.0396778552690642 -1.467549969567119 C 1.0360822521510258 -1.471036788514389 1.0324837862916512 -1.4745293329443308 1.0288566930189165 -1.4779846617369046 C 1.0269615582544724 -1.479791051519932 1.024479561516145 -1.4815945785616231 1.0233087003097134 -1.4839735166118542 C 1.024639875030962 -1.4869135519639445 1.0329360994227421 -1.4855537498293359 1.0361080168230499 -1.4855480243466639 C 1.0488329020616498 -1.4855193969333038 1.0615549245589135 -1.485559475312008 1.0742769470561775 -1.4855566125706718 C 1.093362843543409 -1.4855537498293359 1.112445877289305 -1.485545161605328 1.131531773776537 -1.485550887088 C 1.1431487781180976 -1.4855537498293359 1.1549404096811557 -1.4849697505967883 1.1665144729026764 -1.486177827440588 C 1.1837109601081361 -1.4879727662582711 1.2012652899805984 -1.4935923275008745 1.215994094154411 -1.5026614920533794 C 1.2290653710946688 -1.5107086579489257 1.2391164559254282 -1.5217674277299633 1.2501294218450891 -1.532230747313109 C 1.2667361843353293 -1.548001589333232 1.2835519269430988 -1.563474706254409 1.2999325328677938 -1.5794974695121016 C 1.3492632915700553 -1.6277403865066764 1.3984967170668923 -1.676275303117525 1.4466995556827627 -1.7256490029398268 C 1.4583079718003158 -1.7375379677083096 1.4702398776888386 -1.749109168188494 1.4817538233423027 -1.7610897406797292 C 1.4946476103197277 -1.7744988210976376 1.5074555150570723 -1.7885606065401578 1.523232082559867 -1.7986689461976373 C 1.5640690877181633 -1.8248344020088414 1.6198410144264652 -1.8182672733840162 1.6521298739554122 -1.7814524198028252 C 1.6582532776731544 -1.7744730564256133 1.663197231960458 -1.7666434588716042 1.6670447563160657 -1.7582069601543593 C 1.670565928159368 -1.7504832840297828 1.6735002380287862 -1.742398902496868 1.6746796874592258 -1.733956678296951 C 1.6772389782136259 -1.7156065063330759 1.6754325884305987 -1.695106415625851 1.6668357761985364 -1.6784137708955305 C 1.6563066135646622 -1.657970935015026 1.6394651062848686 -1.6422859752349837 1.6234881468885523 -1.6261401140998424 C 1.602381155018092 -1.6048041029225004 1.5807531442244762 -1.583994836150986 1.5596203876819918 -1.562681726904332 C 1.5070776332007179 -1.5096923847746395 1.4532838607556045 -1.4579511978674509 1.4008241257730747 -1.4048845617216856 C 1.3897882579227259 -1.3937198705112157 1.3785834883335513 -1.3827383947462506 1.3671697386268478 -1.371960173616143 C 1.3527300713279728 -1.3583249366326895 1.3383991881998671 -1.3449387581454695 1.3298710817598696 -1.3266114881122824 C 1.3221846212726613 -1.3100963333447946 1.318775096341464 -1.2918978866717286 1.3188523903575367 -1.2737795967560708 C 1.3188896059949047 -1.264535804982069 1.3190585077337296 -1.255289150466731 1.3190670959577377 -1.2460424959513927 C 1.3190699586990737 -1.2416653644486213 1.3197484283957102 -1.2363206263742756 1.318737880704096 -1.232072318231625 Z M 1.2497629909540788 -1.4600925283867923 C 1.2487266785904403 -1.4526436754304735 1.2492133446175635 -1.4449085483405528 1.251400478998281 -1.4376944401737877 C 1.2538194954272162 -1.4297131173289694 1.2576584315588164 -1.4219636765323689 1.2635957570897176 -1.4159891353640994 C 1.2675520656160943 -1.4120070621656984 1.2721038243403628 -1.4089897327975354 1.2771107589370585 -1.4064905596111918 C 1.3078766400752437 -1.3911405405674635 1.3460198056363468 -1.4112112200742852 1.350834936563529 -1.4453150576102676 C 1.355764577144152 -1.4802347764270145 1.3233125413590525 -1.5123461459931282 1.2882754501475284 -1.5030250602030537 C 1.2832198489481208 -1.5016795717751252 1.2782902083674978 -1.5000993385576433 1.2737785280219336 -1.4973825970297623 C 1.2667934391620497 -1.4931715045244798 1.2613914462609839 -1.4871225320814738 1.2570400794302363 -1.480303482219079 C 1.25311239831722 -1.4741400001226324 1.250770675904357 -1.4673152247775656 1.2497629909540788 -1.4600925283867923 Z M 1.3594746899156316 -1.5603113770781092 C 1.3581664171250711 -1.5537871895733242 1.358633043962842 -1.5475607271674852 1.3598525717719856 -1.5410651670760604 C 1.360997668306393 -1.534970390771678 1.363522606164761 -1.5293164766330425 1.3668090332185094 -1.5240833854708018 C 1.3699551859467933 -1.5190793136154424 1.3740975726600113 -1.514567633269878 1.3787838802270727 -1.5109605791864955 C 1.4089657621327099 -1.4877437469513897 1.4539795069002563 -1.50692411390271 1.4612537326350783 -1.543409752230259 C 1.4625362407536142 -1.5498509202362996 1.4624389075481898 -1.5567386758907586 1.4611306347576294 -1.563171255672791 C 1.4598538521217654 -1.5694263454919906 1.4575464826049347 -1.575438102297628 1.4540682518816732 -1.5808057423026618 C 1.4502693941287774 -1.5866686365588265 1.4456832825084764 -1.5919332178757637 1.439866192113688 -1.5958666244714523 C 1.4172419473351379 -1.6111679769124683 1.3868367716052912 -1.605021671264038 1.3701870679950106 -1.5838516990841849 C 1.3647822123526088 -1.5769753943950697 1.361192334717242 -1.568882424638147 1.3594746899156316 -1.5603113770781092 Z M 1.4645372969474908 -1.6690440185027435 C 1.4640391799550234 -1.6608565782817322 1.4653331390389035 -1.6530584708824194 1.4681558019962175 -1.645360559429867 C 1.4705404655291205 -1.6388478228904262 1.4742162254045674 -1.6328160268954361 1.4789025329716288 -1.6277060336106441 C 1.4825697046230681 -1.6237067839642272 1.4868523656617512 -1.6204518470651745 1.491633143692901 -1.6178954190521107 C 1.523850434688447 -1.6006559907266105 1.5651826940978744 -1.6258767418969287 1.5674270833053123 -1.6613804599462236 C 1.5686838267518244 -1.6812879631968924 1.5559360395825363 -1.7025008764967855 1.5377061027547743 -1.7107312578378373 C 1.5132468407798367 -1.7217728511708585 1.4818683329957438 -1.7121883931778705 1.4697331724723635 -1.6879495622858063 C 1.4668017253442809 -1.6820981189949855 1.4649352179931974 -1.6755996961622248 1.4645372969474908 -1.6690440185027435 Z" fill="#faffff" transform="matrix(1,0,0,1,0,0)" fill-rule="evenodd"></path></g><g clip-path="url(#SvgjsClipPath1756394d2799f-f10e-44ef-bbdf-3feaba807a62)"><path d=" M 1.2302534087491164 -1.2868136580589606 C 1.2336142670776014 -1.2880732642468085 1.2380715553377815 -1.287351853430132 1.2416471192664678 -1.2873804808434923 C 1.248832600019873 -1.2874348729288765 1.257458039665295 -1.2892441254532399 1.264451716749187 -1.2875636962889971 C 1.2693298279857617 -1.284637974643587 1.2734808029229876 -1.2795680597374992 1.277525856430781 -1.2756060257284503 C 1.2864776485885092 -1.266831723533555 1.295188970474012 -1.257739657050362 1.303502371313808 -1.2483584536922314 C 1.3068460531942772 -1.2445824978700237 1.3100179705945851 -1.240657679498343 1.313401730853758 -1.2369189393135036 C 1.314950473916544 -1.2352127454772368 1.3165078052033379 -1.2328194937203256 1.318737880704096 -1.232072318231625 C 1.3198285851531184 -1.2214429596509904 1.3189926646830012 -1.2104357192140012 1.3189869392003293 -1.1997548312893183 C 1.3189697627523131 -1.1797156419371926 1.3189754882349851 -1.1596764525850665 1.3189726254936491 -1.1396372632329408 C 1.3189697627523131 -1.110056557007867 1.3189926646830012 -1.0804758507827934 1.3190127038723536 -1.050892281816384 C 1.3190241548376975 -1.0369364178032963 1.3197226637236859 -1.0227572599659993 1.319110037077778 -1.0088328861076081 C 1.317838979924586 -1.0091134347585378 1.3165736482540662 -1.0113206083286075 1.315749178749293 -1.0122767639348376 C 1.3133530642510458 -1.0150650739961191 1.3109111458914227 -1.0178218939027044 1.3084577765664551 -1.0205615373612735 C 1.2988904950214832 -1.0312538762513006 1.2884872930063938 -1.0412992355993875 1.2785135021917073 -1.0516136926330604 C 1.2669365762288505 -1.0635914023829598 1.2549445527722713 -1.0751540146391363 1.2434535090494954 -1.0872147438877797 C 1.2393483379736454 -1.0915203068571508 1.2322287002709689 -1.096152222338828 1.2296207429138564 -1.1015399015332137 C 1.2277685492694528 -1.105370249440806 1.229088273025357 -1.112544279228867 1.229105449473373 -1.1167296070621249 C 1.2291541160760855 -1.1287702971214166 1.2292972531428865 -1.1408109871807084 1.2293344687802545 -1.1528516772399997 C 1.2294146255376632 -1.1802337981190116 1.2302705851971325 -1.2076502718940558 1.2302820361624767 -1.2350638829277638 C 1.2302906243864846 -1.2521115075837508 1.2288306263051154 -1.2698433274190462 1.2302534087491164 -1.2868136580589606 Z" fill="#82f8fe" transform="matrix(1,0,0,1,0,0)" fill-rule="evenodd"></path></g><g clip-path="url(#SvgjsClipPath1756394d2799f-f10e-44ef-bbdf-3feaba807a62)"><path d=" M 1.2497629909540788 -1.4600925283867923 C 1.250770675904357 -1.4673152247775656 1.25311239831722 -1.4741400001226324 1.2570400794302363 -1.480303482219079 C 1.2613914462609839 -1.4871225320814738 1.2667934391620497 -1.4931715045244798 1.2737785280219336 -1.4973825970297623 C 1.2782902083674978 -1.5000993385576433 1.2832198489481208 -1.5016795717751252 1.2882754501475284 -1.5030250602030537 C 1.3233125413590525 -1.5123461459931282 1.355764577144152 -1.4802347764270145 1.350834936563529 -1.4453150576102676 C 1.3460198056363468 -1.4112112200742852 1.3078766400752437 -1.3911405405674635 1.2771107589370585 -1.4064905596111918 C 1.2721038243403628 -1.4089897327975354 1.2675520656160943 -1.4120070621656984 1.2635957570897176 -1.4159891353640994 C 1.2576584315588164 -1.4219636765323689 1.2538194954272162 -1.4297131173289694 1.251400478998281 -1.4376944401737877 C 1.2492133446175635 -1.4449085483405528 1.2487266785904403 -1.4526436754304735 1.2497629909540788 -1.4600925283867923 Z" fill="#0f3755" transform="matrix(1,0,0,1,0,0)" fill-rule="evenodd"></path></g><g clip-path="url(#SvgjsClipPath1756394d2799f-f10e-44ef-bbdf-3feaba807a62)"><path d=" M 1.3594746899156316 -1.5603113770781092 C 1.361192334717242 -1.568882424638147 1.3647822123526088 -1.5769753943950697 1.3701870679950106 -1.5838516990841849 C 1.3868367716052912 -1.605021671264038 1.4172419473351379 -1.6111679769124683 1.439866192113688 -1.5958666244714523 C 1.4456832825084764 -1.5919332178757637 1.4502693941287774 -1.5866686365588265 1.4540682518816732 -1.5808057423026618 C 1.4575464826049347 -1.575438102297628 1.4598538521217654 -1.5694263454919906 1.4611306347576294 -1.563171255672791 C 1.4624389075481898 -1.5567386758907586 1.4625362407536142 -1.5498509202362996 1.4612537326350783 -1.543409752230259 C 1.4539795069002563 -1.50692411390271 1.4089657621327099 -1.4877437469513897 1.3787838802270727 -1.5109605791864955 C 1.3740975726600113 -1.514567633269878 1.3699551859467933 -1.5190793136154424 1.3668090332185094 -1.5240833854708018 C 1.363522606164761 -1.5293164766330425 1.360997668306393 -1.534970390771678 1.3598525717719856 -1.5410651670760604 C 1.358633043962842 -1.5475607271674852 1.3581664171250711 -1.5537871895733242 1.3594746899156316 -1.5603113770781092 Z" fill="#0f3657" transform="matrix(1,0,0,1,0,0)" fill-rule="evenodd"></path></g><g clip-path="url(#SvgjsClipPath1756394d2799f-f10e-44ef-bbdf-3feaba807a62)"><path d=" M 1.4645372969474908 -1.6690440185027435 C 1.4649352179931974 -1.6755996961622248 1.4668017253442809 -1.6820981189949855 1.4697331724723635 -1.6879495622858063 C 1.4818683329957438 -1.7121883931778705 1.5132468407798367 -1.7217728511708585 1.5377061027547743 -1.7107312578378373 C 1.5559360395825363 -1.7025008764967855 1.5686838267518244 -1.6812879631968924 1.5674270833053123 -1.6613804599462236 C 1.5651826940978744 -1.6258767418969287 1.523850434688447 -1.6006559907266105 1.491633143692901 -1.6178954190521107 C 1.4868523656617512 -1.6204518470651745 1.4825697046230681 -1.6237067839642272 1.4789025329716288 -1.6277060336106441 C 1.4742162254045674 -1.6328160268954361 1.4705404655291205 -1.6388478228904262 1.4681558019962175 -1.645360559429867 C 1.4653331390389035 -1.6530584708824194 1.4640391799550234 -1.6608565782817322 1.4645372969474908 -1.6690440185027435 Z" fill="#0a3759" transform="matrix(1,0,0,1,0,0)" fill-rule="evenodd"></path></g></g><g><path d=" M 0.654052734375 0.90966796875 L 0.7646484375 0.90966796875 L 0.71484375 0.75 L 0.37353515625 0.75 L 0.32373046875 0.90966796875 L 0.44091796875 0.90966796875 L 0.44091796875 1.1103515625 L 0.019775390625 1.1103515625 L 0.019775390625 0.90966796875 L 0.1025390625 0.90966796875 L 0.405029296875 0 L 0.69873046875 0 L 0.99462890625 0.90966796875 L 1.0751953125 0.90966796875 L 1.0751953125 1.1103515625 L 0.654052734375 1.1103515625 L 0.654052734375 0.90966796875 M 0.431396484375 0.5625 L 0.655517578125 0.5625 L 0.542724609375 0.201416015625 L 0.431396484375 0.5625 M 1.4736328125 0 L 2.06103515625 0 Q 2.146728515625 0 2.214111328125 0.025634765625 Q 2.281494140625 0.05126953125 2.32763671875 0.0941162109375 Q 2.373779296875 0.136962890625 2.3983154296875 0.1937255859375 Q 2.4228515625 0.25048828125 2.4228515625 0.31201171875 Q 2.4228515625 0.368408203125 2.4107666015625 0.410888671875 Q 2.398681640625 0.453369140625 2.3756103515625 0.486328125 Q 2.3525390625 0.519287109375 2.31884765625 0.5445556640625 Q 2.28515625 0.56982421875 2.241943359375 0.59033203125 Q 2.279296875 0.609375 2.307861328125 0.6485595703125 Q 2.33642578125 0.687744140625 2.35107421875 0.75 L 2.388427734375 0.894287109375 L 2.47998046875 0.894287109375 L 2.4814453125 1.1103515625 L 2.1591796875 1.1103515625 L 2.115234375 0.8466796875 Q 2.108642578125 0.7998046875 2.0950927734375 0.7657470703125 Q 2.08154296875 0.731689453125 2.058837890625 0.7100830078125 Q 2.0361328125 0.6884765625 2.0035400390625 0.67822265625 Q 1.970947265625 0.66796875 1.92626953125 0.66796875 L 1.831787109375 0.66796875 L 1.831787109375 0.90966796875 L 1.93359375 0.90966796875 L 1.93359375 1.1103515625 L 1.4736328125 1.1103515625 L 1.4736328125 0.90966796875 L 1.588623046875 0.90966796875 L 1.588623046875 0.201416015625 L 1.4736328125 0.201416015625 L 1.4736328125 0 M 1.831787109375 0.201416015625 L 1.831787109375 0.47021484375 L 1.9775390625 0.47021484375 Q 2.019287109375 0.47021484375 2.0526123046875 0.4625244140625 Q 2.0859375 0.454833984375 2.1097412109375 0.4383544921875 Q 2.133544921875 0.421875 2.1463623046875 0.39697265625 Q 2.1591796875 0.3720703125 2.1591796875 0.337646484375 Q 2.1591796875 0.273193359375 2.113037109375 0.2373046875 Q 2.06689453125 0.201416015625 1.9775390625 0.201416015625 L 1.831787109375 0.201416015625" fill="#0a3759" fill-rule="nonzero"></path></g><g></g></g><defs><clipPath id="SvgjsClipPath17565"><path d=" M 0 -1.9176518418613728 h 1.7758807270668984 v 1.6676518418613728 h -1.7758807270668984 Z"></path></clipPath><clipPath id="SvgjsClipPath1756394d2799f-f10e-44ef-bbdf-3feaba807a62"><path d=" M 0 -1.9176518418613726 L 1.7758807270668984 -1.9176518418613726 L 1.7758807270668984 -0.25 L 0 -0.25 Z"></path></clipPath></defs></svg>